# Blender v2.65 (sub 0) OBJ File: ''
# www.blender.org
o Cube
v 9.917383 -0.500820 -8.876498
v 9.918235 -0.502397 8.877013
v -9.918246 -0.502408 8.877016
v -9.889696 -0.444677 -8.855808
v 9.918250 -0.698841 -8.877013
v 9.918239 -0.698841 8.877024
v -9.918249 -0.698841 8.877015
v -9.918244 -0.698841 -8.877018
v 9.868796 -0.448606 -0.014565
v -0.032716 -0.395196 -8.821498
v 0.000000 -0.502408 8.877017
v -9.775466 -0.410783 -0.021661
v 0.051678 -0.332676 0.083263
v 9.869096 -0.440473 4.416766
v -4.955314 -0.439589 -8.844800
v -4.953177 -0.466809 8.857315
v -9.878094 -0.430804 -4.416094
v 9.924129 -0.480519 -4.433369
v 4.905790 -0.380428 -8.796337
v 4.959102 -0.502386 8.877016
v -9.893404 -0.482854 4.432937
v -4.842468 -0.328290 0.038673
v 4.917365 -0.368989 0.077233
v -0.120414 -0.273283 -4.402374
v 0.059719 -0.384276 4.373137
v -4.892628 -0.403755 4.423417
v -4.884965 -0.378521 -4.400977
v 4.912929 -0.368510 -4.366784
v 4.862223 -0.166184 4.248118
v 9.911807 -0.495969 6.657402
v -7.418097 -0.442868 -8.849039
v -7.438198 -0.498878 8.875152
v -9.853987 -0.421612 -6.628143
v 9.916450 -0.499011 -6.656671
v 7.409278 -0.404564 -8.799451
v 7.422952 -0.486675 8.872415
v -9.918209 -0.502377 6.657753
v -7.057394 -0.141498 -0.092921
v 7.394446 -0.432018 -0.004162
v -0.011114 -0.293168 -6.471497
v 0.117048 -0.316854 2.164842
v 9.890105 -0.439639 2.221661
v -2.495889 -0.421348 -8.865804
v -2.478569 -0.496075 8.873464
v -9.803952 -0.419577 -2.203274
v 9.882523 -0.414635 -2.247527
v 2.472695 -0.464493 -8.853375
v 2.479561 -0.502408 8.877017
v -9.824238 -0.434362 2.199291
v -2.397593 -0.349142 0.050191
v 2.466489 -0.254350 0.146991
v -0.018291 -0.390856 -2.150019
v -0.000113 -0.498079 6.657799
v -7.390546 -0.430514 4.419147
v -2.359931 -0.179639 4.196047
v -4.876698 -0.373850 2.232295
v -4.933245 -0.416822 6.613206
v -7.297302 -0.307293 -4.324892
v -2.490384 -0.313399 -4.442354
v -4.940114 -0.422773 -6.621985
v -4.787902 -0.348558 -2.166937
v 2.168413 -0.118465 -4.513104
v 7.373186 -0.311060 -4.256553
v 4.879225 -0.205151 -6.292623
v 4.898974 -0.388468 -2.159700
v 2.551380 -0.333186 4.342345
v 7.353360 -0.384847 4.376179
v 4.900965 -0.254584 2.236843
v 4.931993 -0.423123 6.591633
v -7.172508 -0.212090 6.483907
v -7.325961 -0.363481 -2.214819
v 2.463571 -0.430468 -2.179527
v 2.481436 -0.482046 6.650188
v -7.366206 -0.418284 2.194649
v -2.367191 -0.184088 2.056890
v -2.471457 -0.423110 6.626001
v -7.286988 -0.178389 -6.401989
v -2.494774 -0.293686 -6.521102
v -2.481347 -0.326820 -2.270144
v 2.437867 -0.336806 -6.651594
v 7.340658 -0.201387 -6.211776
v 7.322994 -0.304776 -2.247594
v 2.540962 -0.258521 2.302293
v 7.382467 -0.422399 2.210770
v 7.328990 -0.406690 6.589820
vt 0.875792 0.403603
vt 0.895668 0.825615
vt 0.864028 0.832375
vt 0.844982 0.816430
vt 0.000000 0.000000
vt 1.000000 0.000000
vt 1.000000 1.000000
vt 0.000000 1.000000
vt 0.770320 0.920627
vt 0.954816 0.707707
vt 0.994911 0.428843
vt 0.500000 1.000000
vt 0.877875 0.172570
vt 0.229680 0.920627
vt 0.045184 0.707708
vt 0.640866 0.020253
vt 0.122125 0.172570
vt 0.005089 0.428843
vt 0.359134 0.020254
vt 0.289073 0.824513
vt 0.266540 0.913606
vt 0.243585 0.896967
vt 0.244430 0.493232
vt 0.999582 0.670674
vt 0.974754 0.613753
vt 0.961398 0.520588
vt 1.000000 0.403603
vt 0.521710 0.833225
vt 0.481605 0.827165
vt 0.482034 0.789765
vt 0.518531 0.789766
vt 0.100473 0.399583
vt 0.122368 0.431255
vt 0.098331 0.509242
vt 0.071345 0.426460
vt 0.030746 0.051754
vt 0.073938 0.328170
vt 0.047574 0.379685
vt 0.000318 0.054731
vt 0.213061 0.365646
vt 0.244120 0.353181
vt 0.260342 0.434820
vt 0.227102 0.480718
vt 0.723011 0.403603
vt 0.747013 0.757247
vt 0.715701 0.777010
vt 0.694035 0.591709
vt 0.662324 0.733288
vt 0.662357 0.926944
vt 0.636257 0.867882
vt 0.629258 0.763992
vt 0.706140 0.822762
vt 0.667919 0.811157
vt 0.674403 0.783370
vt 0.706087 0.777010
vt 0.889422 0.380599
vt 0.863076 0.317624
vt 0.843595 0.281790
vt 0.888922 0.052125
vt 0.499951 0.500417
vt 0.521710 0.513981
vt 0.521612 0.751563
vt 0.490649 0.662945
vt 0.595727 0.512821
vt 0.648029 0.622030
vt 0.664415 0.597871
vt 0.651957 0.698737
vt 0.505501 0.127363
vt 0.538333 0.216375
vt 0.521268 0.321546
vt 0.491566 0.241607
vt 0.390480 0.373455
vt 0.369620 0.129628
vt 0.396772 0.000000
vt 0.420061 0.313458
vt 0.625786 0.361542
vt 0.653692 0.382855
vt 0.664415 0.507539
vt 0.635564 0.487333
vt 0.193963 0.819043
vt 0.170673 0.902663
vt 0.149989 0.927812
vt 0.149730 0.493232
vt 0.045442 0.792104
vt 0.027285 0.818607
vt 0.027371 0.509242
vt 0.076265 0.798903
vt 0.289073 0.052074
vt 0.288543 0.478206
vt 0.683535 0.767547
vt 0.664415 0.677455
vt 0.318057 0.733302
vt 0.339091 0.622575
vt 0.366710 0.709567
vt 0.334579 0.696008
vt 0.910115 0.356151
vt 0.889422 0.366456
vt 0.890234 0.052125
vt 0.936521 0.317043
vt 0.895668 0.403603
vt 0.929827 0.630422
vt 0.910726 0.804559
vt 0.895734 0.850644
vt 0.797803 0.772563
vt 0.843891 0.403603
vt 0.844982 0.867017
vt 0.817219 0.809944
vt 0.309300 0.330668
vt 0.289073 0.376721
vt 0.320563 0.125103
vt 0.340340 0.295574
vt 0.511976 0.491907
vt 0.488692 0.461102
vt 0.442220 0.000000
vt 0.458222 0.370221
vt 0.461986 0.500417
vt 0.441653 0.492029
vt 0.092758 0.000000
vt 0.149730 0.388373
vt 0.200558 0.768239
vt 0.243585 0.493232
vt 0.243541 0.904352
vt 0.216893 0.843220
vt 0.983676 0.325732
vt 0.951972 0.302364
vt 0.936521 0.366456
vt 0.936579 0.080472
vt 0.421440 0.647657
vt 0.404535 0.663677
vt 0.366761 0.430097
vt 0.441653 0.611539
vt 0.149730 0.196733
vt 0.191497 0.000000
vt 0.211287 0.002122
vt 0.164534 0.303523
vt 0.019173 0.407646
vt 0.000000 0.407432
vt 0.175922 0.478038
vt 0.195746 0.493232
vt 0.794684 0.397834
vt 0.765052 0.403012
vt 0.745341 0.362227
vt 0.793641 0.000000
vt 0.815676 0.380599
vt 0.794684 0.374879
vt 0.795220 0.000000
vt 0.843595 0.346602
vt 0.302938 0.791497
vt 0.302924 0.430097
vt 0.127222 0.707527
vt 0.102441 0.742365
vt 0.076265 0.715427
vt 0.076584 0.518296
vt 0.149730 0.661033
vt 0.104604 0.509242
vt 0.746968 0.781545
vt 0.747013 0.818254
vt 0.706140 0.820663
vt 0.721023 0.777010
vt 0.607569 0.828661
vt 0.595727 0.785984
vt 0.076368 0.742365
vt 0.099164 0.798556
vt 0.116229 0.827662
vt 0.076265 0.922658
vt 0.415423 0.741058
vt 0.366710 0.650914
vt 0.441653 0.997083
vt 0.404190 0.893680
vt 0.412331 0.741058
vt 0.441619 0.810195
vt 0.715466 0.275066
vt 0.687521 0.403603
vt 0.664415 0.209576
vt 0.689210 0.009948
vt 0.558296 0.639472
vt 0.521710 0.808294
vt 0.569993 0.500417
vt 0.570462 0.859278
vt 0.745341 0.306489
vt 0.717616 0.000000
vt 0.767085 0.839293
vt 0.747013 0.693876
vt 0.781413 0.403603
vt 0.797803 0.828548
vt 0.930218 0.842386
vt 0.929827 0.403603
vt 0.961398 0.568085
vt 0.949217 0.821485
vt 0.494492 0.789765
vt 0.462258 0.663605
vt 0.961398 0.932574
vt 0.961787 0.684819
vt 0.990378 0.670674
vt 0.998851 0.836028
vt 0.595999 0.681154
vt 0.627440 0.733288
vt 0.534923 0.111279
vt 0.570462 0.228555
vt 0.351036 0.123217
vt 0.486304 0.113589
vt 0.359954 0.395013
vt 0.380332 0.430097
vt 0.411431 0.409525
vt 0.441653 0.402419
vt 0.608149 0.320555
vt 0.664387 0.000000
vt 0.570462 0.404134
vt 0.583452 0.494149
vt 0.602616 0.512821
vn -0.054064 0.996799 0.058895
vn 0.000000 1.000000 0.000000
vn -1.000000 -0.000019 -0.000001
vn -0.999990 -0.004378 0.000048
vn -0.702005 -0.712172 -0.000030
vn -0.992562 -0.121744 -0.000318
vn -0.904973 0.425468 -0.000413
vn -0.757048 -0.653357 -0.001751
vn -0.393378 -0.919375 0.001714
vn -0.961870 -0.273320 -0.010071
vn -0.223989 0.974590 -0.001773
vn 0.000000 0.000005 -1.000000
vn 0.000000 -0.000029 -1.000000
vn -0.000000 -0.000034 -1.000000
vn -0.000001 -0.000053 -1.000000
vn 0.000000 -0.467125 -0.884191
vn -0.000017 -0.494270 -0.869308
vn -0.000001 0.018015 -0.999838
vn -0.000001 -0.280902 -0.959736
vn -0.000024 -0.484660 -0.874703
vn 1.000000 -0.000015 0.000000
vn 0.999999 -0.001503 0.000017
vn 0.993737 -0.111736 0.001411
vn 0.477149 -0.878819 -0.002392
vn 0.523149 -0.852238 -0.002302
vn 0.552317 0.833624 -0.004048
vn 0.474335 -0.880343 0.001511
vn 0.317499 -0.948254 -0.003095
vn 0.050950 -0.998696 0.003360
vn -0.000000 -0.083160 0.996536
vn 0.001037 -0.002596 0.999996
vn -0.001277 -0.709916 0.704285
vn -0.000707 -0.636072 0.771629
vn -0.001314 -0.736515 0.676420
vn -0.000770 -0.523165 0.852231
vn 0.002848 0.565570 0.824695
vn -0.007385 -0.625796 0.779952
vn -0.003616 -0.487680 0.873015
vn -0.063202 0.996793 -0.049091
vn -0.007538 0.998660 -0.051194
vn -0.003223 0.999979 0.005552
vn -0.013739 0.999817 0.013330
vn -0.081354 0.996669 0.005696
vn 0.007039 0.999600 0.027405
vn -0.072958 0.996837 0.031509
vn -0.040031 0.999185 -0.005148
vn -0.000178 1.000000 0.000455
vn -0.027035 0.997896 -0.058933
vn -0.015139 0.997402 0.070425
vn -0.003382 0.999703 0.024113
vn -0.022962 0.999186 0.033165
vn 0.078042 0.996534 -0.028784
vn -0.006562 0.999365 0.035014
vn -0.066619 0.996842 -0.043221
vn 0.038898 0.998002 -0.049793
vn 0.034665 0.996615 0.074544
vn -0.035649 0.999306 0.010768
vn 0.011406 0.999918 0.005857
vn 0.038254 0.997599 -0.057737
vn -0.021239 0.995244 0.095067
vn 0.037773 0.996794 0.070535
vn 0.014412 0.998976 -0.042885
vn -0.013036 0.998305 0.056729
vn -0.044437 0.995232 0.086826
vn -0.011689 0.999687 0.022137
vn -0.054033 0.996606 0.062110
vn 0.027511 0.996892 0.073815
vn -0.014351 0.999853 0.009410
vn -0.035000 0.998982 -0.028452
vn 0.024822 0.998689 -0.044766
vn 0.067752 0.997586 0.015230
vn -0.041191 0.997689 0.054046
vn 0.053608 0.995558 0.077392
vn 0.016296 0.999717 0.017325
vn -0.045733 0.997168 -0.059704
vn 0.047218 0.996987 -0.061534
vn 0.067332 0.997551 0.018945
vn -0.029497 0.999068 -0.031497
vn -0.004457 0.998796 -0.048845
vn -0.008367 0.999965 -0.000253
vn -0.018575 0.999822 -0.003306
vn 0.003970 0.999557 0.029493
vn 0.009939 0.999917 -0.008209
vn 0.020608 0.998520 -0.050332
vn -0.038607 0.997157 -0.064706
vn 0.024003 0.999638 -0.012131
vn 0.005251 0.997242 -0.074029
vn 0.072949 0.996475 -0.041433
vn 0.093216 0.995428 0.020824
vn -0.028898 0.999578 0.002802
vn 0.054016 0.998412 -0.015995
vn 0.025168 0.999047 0.035655
vn -0.028156 0.999602 -0.001820
vn 0.022271 0.999418 -0.025832
vn -0.036697 0.999320 -0.003645
vn 0.045880 0.998554 -0.028013
vn 0.006790 0.999968 -0.004190
vn 0.014588 0.999860 -0.008252
vn 0.039697 0.997371 0.060618
vn 0.028040 0.999458 0.017238
vn 0.020403 0.999616 0.018731
s off
f 70/1/1 37/2/1 3/3/1
f 70/1/1 3/3/1 32/4/1
f 5/5/2 8/6/2 7/7/2
f 5/5/2 7/7/2 6/8/2
f 5/9/3 6/10/3 2/11/3
f 1/12/4 5/9/4 2/11/4
f 1/12/5 2/11/5 30/13/5
f 1/12/6 30/13/6 34/14/6
f 30/13/7 18/15/7 34/14/7
f 30/13/8 14/16/8 18/15/8
f 14/16/9 9/17/9 18/15/9
f 9/17/10 46/18/10 18/15/10
f 14/16/11 42/19/11 9/17/11
f 6/9/12 7/10/12 3/11/12
f 6/9/13 3/11/13 11/17/13
f 6/9/14 11/17/14 48/18/14
f 2/12/15 6/9/15 48/18/15
f 3/11/16 32/13/16 11/17/16
f 32/13/17 44/19/17 11/17/17
f 2/12/18 48/18/18 20/15/18
f 2/12/19 20/15/19 36/14/19
f 32/13/20 16/16/20 44/19/20
f 3/12/21 7/9/21 8/10/21
f 3/12/22 8/10/22 37/14/22
f 8/10/23 4/11/23 37/14/23
f 4/11/24 21/15/24 37/14/24
f 4/11/25 49/18/25 21/15/25
f 4/11/26 17/16/26 49/18/26
f 4/11/27 33/13/27 17/16/27
f 17/16/28 12/17/28 49/18/28
f 17/16/29 45/19/29 12/17/29
f 5/12/30 4/15/30 8/14/30
f 5/12/31 1/9/31 4/15/31
f 1/9/32 47/13/32 4/15/32
f 1/9/33 35/10/33 47/13/33
f 47/13/34 31/18/34 4/15/34
f 47/13/35 15/17/35 31/18/35
f 47/13/36 43/19/36 15/17/36
f 47/13/37 10/16/37 43/19/37
f 35/10/38 19/11/38 47/13/38
f 71/20/39 45/21/39 12/22/39
f 71/20/39 12/22/39 38/23/39
f 72/24/40 52/25/40 13/26/40
f 72/24/40 13/26/40 51/27/40
f 73/28/41 53/29/41 11/30/41
f 73/28/41 11/30/41 48/31/41
f 74/32/42 49/33/42 21/34/42
f 74/32/42 21/34/42 54/35/42
f 75/36/43 56/37/43 26/38/43
f 75/36/43 26/38/43 55/39/43
f 76/40/44 57/41/44 16/42/44
f 76/40/44 16/42/44 44/43/44
f 77/44/45 33/45/45 17/46/45
f 77/44/45 17/46/45 58/47/45
f 78/48/46 60/49/46 27/50/46
f 78/48/46 27/50/46 59/51/46
f 79/52/47 61/53/47 22/54/47
f 79/52/47 22/54/47 50/55/47
f 80/56/48 40/57/48 24/58/48
f 80/56/48 24/58/48 62/59/48
f 81/60/49 64/61/49 28/62/49
f 81/60/49 28/62/49 63/63/49
f 82/64/50 65/65/50 23/66/50
f 82/64/50 23/66/50 39/67/50
f 83/68/51 41/69/51 25/70/51
f 83/68/51 25/70/51 66/71/51
f 84/72/52 68/73/52 29/74/52
f 84/72/52 29/74/52 67/75/52
f 85/76/53 69/77/53 20/78/53
f 85/76/53 20/78/53 36/79/53
f 54/80/54 21/81/54 37/82/54
f 54/80/54 37/82/54 70/83/54
f 26/84/55 54/85/55 70/86/55
f 26/84/55 70/86/55 57/87/55
f 57/41/56 70/88/56 32/89/56
f 57/41/56 32/89/56 16/42/56
f 58/47/57 17/46/57 45/90/57
f 58/47/57 45/90/57 71/91/57
f 27/92/58 58/93/58 71/94/58
f 27/92/58 71/94/58 61/95/58
f 61/96/59 71/97/59 38/98/59
f 61/96/59 38/98/59 22/99/59
f 62/100/60 24/101/60 52/102/60
f 62/100/60 52/102/60 72/103/60
f 28/104/61 62/105/61 72/106/61
f 28/104/61 72/106/61 65/107/61
f 65/108/62 72/109/62 51/110/62
f 65/108/62 51/110/62 23/111/62
f 66/71/63 25/70/63 53/112/63
f 66/71/63 53/112/63 73/113/63
f 29/114/64 66/71/64 73/113/64
f 29/114/64 73/113/64 69/115/64
f 69/115/65 73/113/65 48/116/65
f 69/115/65 48/116/65 20/117/65
f 38/118/66 12/119/66 49/33/66
f 38/118/66 49/33/66 74/32/66
f 22/120/67 38/121/67 74/122/67
f 22/120/67 74/122/67 56/123/67
f 56/37/68 74/32/68 54/35/68
f 56/37/68 54/35/68 26/38/68
f 50/124/69 22/125/69 56/126/69
f 50/124/69 56/126/69 75/127/69
f 13/128/70 50/129/70 75/130/70
f 13/128/70 75/130/70 41/131/70
f 41/132/71 75/133/71 55/134/71
f 41/132/71 55/134/71 25/135/71
f 55/39/72 26/38/72 57/136/72
f 55/39/72 57/136/72 76/137/72
f 25/135/73 55/134/73 76/40/73
f 25/135/73 76/40/73 53/138/73
f 53/138/74 76/40/74 44/43/74
f 53/138/74 44/43/74 11/139/74
f 31/140/75 4/141/75 33/142/75
f 31/140/75 33/142/75 77/143/75
f 15/144/76 31/145/76 77/146/76
f 15/144/76 77/146/76 60/147/76
f 60/148/77 77/149/77 58/93/77
f 60/148/77 58/93/77 27/92/77
f 43/150/78 15/151/78 60/152/78
f 43/150/78 60/152/78 78/153/78
f 10/154/79 43/150/79 78/153/79
f 10/154/79 78/153/79 40/155/79
f 40/156/80 78/157/80 59/158/80
f 40/156/80 59/158/80 24/159/80
f 59/51/81 27/50/81 61/160/81
f 59/51/81 61/160/81 79/161/81
f 24/162/82 59/163/82 79/164/82
f 24/162/82 79/164/82 52/165/82
f 52/166/83 79/167/83 50/129/83
f 52/166/83 50/129/83 13/128/83
f 47/168/84 10/169/84 40/170/84
f 47/168/84 40/170/84 80/171/84
f 19/172/85 47/173/85 80/174/85
f 19/172/85 80/174/85 64/175/85
f 64/176/86 80/177/86 62/178/86
f 64/176/86 62/178/86 28/179/86
f 35/180/87 19/172/87 64/175/87
f 35/180/87 64/175/87 81/181/87
f 1/182/88 35/183/88 81/184/88
f 1/182/88 81/184/88 34/185/88
f 34/186/89 81/187/89 63/188/89
f 34/186/89 63/188/89 18/189/89
f 63/63/90 28/62/90 65/190/90
f 63/63/90 65/190/90 82/191/90
f 18/192/91 63/193/91 82/194/91
f 18/192/91 82/194/91 46/195/91
f 46/196/92 82/64/92 39/67/92
f 46/196/92 39/67/92 9/197/92
f 51/198/93 13/199/93 41/69/93
f 51/198/93 41/69/93 83/68/93
f 23/111/94 51/110/94 83/200/94
f 23/111/94 83/200/94 68/73/94
f 68/201/95 83/68/95 66/71/95
f 68/201/95 66/71/95 29/114/95
f 39/202/96 23/111/96 68/73/96
f 39/202/96 68/73/96 84/72/96
f 9/203/97 39/202/97 84/72/97
f 9/203/97 84/72/97 42/204/97
f 42/204/98 84/72/98 67/75/98
f 42/204/98 67/75/98 14/205/98
f 67/206/99 29/207/99 69/77/99
f 67/206/99 69/77/99 85/76/99
f 14/208/100 67/206/100 85/76/100
f 14/208/100 85/76/100 30/209/100
f 30/209/101 85/76/101 36/79/101
f 30/209/101 36/79/101 2/210/101
