# Blender v2.65 (sub 0) OBJ File: 'cross.blend'
# www.blender.org
o Cube
v 0.330750 0.521667 -0.167268
v 0.330750 0.521667 0.167268
v -0.330750 0.521667 0.167268
v -0.330749 0.521667 -0.167268
v 0.330750 -2.280360 -0.167268
v 0.330749 -2.280360 0.167268
v -0.330750 -2.280360 0.167268
v -0.330750 -2.280360 -0.167268
v 0.330750 1.158941 -0.167268
v 0.330750 1.158941 0.167268
v -0.330750 1.158941 0.167268
v -0.330749 1.158941 -0.167268
v 0.330750 2.160568 -0.167268
v 0.330750 2.160568 0.167268
v -0.330750 2.160568 0.167268
v -0.330749 2.160568 -0.167268
v 0.330750 0.521667 -0.167268
v 0.330750 0.521667 0.167268
v -0.330750 0.521667 0.167268
v -0.330749 0.521667 -0.167268
v 0.330750 1.158941 -0.167268
v 0.330750 1.158941 0.167268
v -0.330750 1.158941 0.167268
v -0.330749 1.158941 -0.167268
v -1.330750 0.521667 0.167268
v -1.330750 0.521667 -0.167268
v -1.330750 1.158941 0.167268
v -1.330750 1.158941 -0.167268
v 1.330750 0.521667 -0.167268
v 1.330750 0.521667 0.167268
v 1.330750 1.158941 -0.167268
v 1.330750 1.158941 0.167268
vt 0.223976 0.273885
vt 0.223821 0.223136
vt 0.000685 0.223821
vt 0.000840 0.274569
vt 0.672613 0.676691
vt 0.449477 0.676006
vt 0.448792 0.899142
vt 0.671928 0.899827
vt 0.895749 0.000000
vt 0.672613 0.000685
vt 0.673297 0.223821
vt 0.896433 0.223136
vt 0.224905 0.223821
vt 0.448041 0.223136
vt 0.447357 0.000000
vt 0.224221 0.000685
vt 0.896433 0.561139
vt 0.895749 0.338003
vt 0.672613 0.338688
vt 0.673297 0.561824
vt 0.223136 0.000000
vt 0.000000 0.000685
vt 0.224905 0.915716
vt 0.304669 0.915472
vt 0.303984 0.692336
vt 0.224221 0.692580
vt 0.000000 0.000000
vt 0.225061 0.274569
vt 0.448197 0.273885
vt 0.895748 0.561824
vt 0.672613 0.562508
vt 0.673297 0.785644
vt 0.896433 0.784960
vt 0.001085 0.354332
vt 0.224221 0.353648
vt 0.225306 0.354332
vt 0.448442 0.353648
vt 0.000735 0.915716
vt 0.080498 0.915472
vt 0.079814 0.692336
vt 0.000050 0.692580
vt 0.948217 0.337319
vt 0.947182 0.000000
vt 0.896433 0.000156
vt 0.897468 0.337474
vt 0.948216 0.338159
vt 0.949251 0.675477
vt 1.000000 0.675322
vt 0.998965 0.338003
vt 0.173472 0.915627
vt 0.224221 0.915472
vt 0.223536 0.692336
vt 0.172788 0.692491
vt 0.448442 0.000685
vt 0.449477 0.338003
vt 0.672613 0.337319
vt 0.671578 0.000000
vt 0.448442 0.675322
vt 0.671578 0.676006
vt 0.948217 0.000156
vt 0.949251 0.337474
vt 1.000000 0.337319
vt 0.998965 0.000000
vt 0.081183 0.915627
vt 0.131931 0.915472
vt 0.131247 0.692336
vt 0.080498 0.692491
vt 0.448392 0.691651
vt 0.447357 0.354332
vt 0.224221 0.355017
vt 0.225256 0.692336
vt 0.948216 0.675322
vt 0.947182 0.338003
vt 0.896433 0.338159
vt 0.897468 0.675477
vt 0.223186 0.692336
vt 0.000050 0.691651
vn 0.000000 0.000000 -1.000000
vn 0.000000 -1.000000 0.000000
vn 1.000000 -0.000000 0.000001
vn -0.000000 0.000000 1.000000
vn -1.000000 0.000000 -0.000000
vn 1.000000 0.000000 0.000000
vn 0.000000 0.000000 0.000000
vn 0.000000 1.000000 0.000000
s off
f 9/1/1 1/2/1 4/3/1
f 9/1/1 4/3/1 12/4/1
f 5/5/2 6/6/2 7/7/2
f 5/5/2 7/7/2 8/8/2
f 1/9/3 2/10/3 6/11/3
f 1/9/3 6/11/3 5/12/3
f 2/13/4 3/14/4 7/15/4
f 2/13/4 7/15/4 6/16/4
f 3/17/5 4/18/5 8/19/5
f 3/17/5 8/19/5 7/20/5
f 4/3/1 1/2/1 5/21/1
f 4/3/1 5/21/1 8/22/1
f 9/23/6 13/24/6 14/25/6
f 9/23/6 14/25/6 10/26/6
f 10/27/7 22/27/7 21/27/7
f 10/27/7 21/27/7 9/27/7
f 2/13/4 10/28/4 11/29/4
f 2/13/4 11/29/4 3/14/4
f 2/27/7 18/27/7 22/27/7
f 2/27/7 22/27/7 10/27/7
f 13/30/8 16/31/8 15/32/8
f 13/30/8 15/32/8 14/33/8
f 12/4/1 16/34/1 13/35/1
f 12/4/1 13/35/1 9/1/1
f 10/28/4 14/36/4 15/37/4
f 10/28/4 15/37/4 11/29/4
f 11/38/5 15/39/5 16/40/5
f 11/38/5 16/40/5 12/41/5
f 23/42/4 27/43/4 25/44/4
f 23/42/4 25/44/4 19/45/4
f 18/46/4 30/47/4 32/48/4
f 18/46/4 32/48/4 22/49/4
f 3/27/7 19/27/7 20/27/7
f 3/27/7 20/27/7 4/27/7
f 12/27/7 24/27/7 23/27/7
f 12/27/7 23/27/7 11/27/7
f 11/27/7 23/27/7 19/27/7
f 11/27/7 19/27/7 3/27/7
f 1/27/7 17/27/7 18/27/7
f 1/27/7 18/27/7 2/27/7
f 4/27/7 20/27/7 24/27/7
f 4/27/7 24/27/7 12/27/7
f 17/27/7 1/27/7 9/27/7
f 17/27/7 9/27/7 21/27/7
f 25/50/5 27/51/5 28/52/5
f 25/50/5 28/52/5 26/53/5
f 24/54/8 28/55/8 27/56/8
f 24/54/8 27/56/8 23/57/8
f 19/55/2 25/58/2 26/59/2
f 19/55/2 26/59/2 20/19/2
f 20/60/1 26/61/1 28/62/1
f 20/60/1 28/62/1 24/63/1
f 29/64/6 31/65/6 32/66/6
f 29/64/6 32/66/6 30/67/6
f 17/68/2 29/69/2 30/70/2
f 17/68/2 30/70/2 18/71/2
f 21/72/1 31/73/1 29/74/1
f 21/72/1 29/74/1 17/75/1
f 22/76/8 32/70/8 31/34/8
f 22/76/8 31/34/8 21/77/8
