# Blender v2.65 (sub 0) OBJ File: 'ghost_arm_left.blend'
# www.blender.org
o Cylinder
v -0.232575 -0.316370 -0.757032
v 0.006720 -0.693244 -0.597005
v -0.594957 -0.363008 -0.400796
v -0.389428 -0.744227 -0.207575
v -0.723372 -0.170004 0.053800
v -0.529810 -0.533238 0.289381
v -0.557734 0.172334 0.394048
v -0.348738 -0.159001 0.661333
v -0.175546 0.503822 0.460739
v 0.069063 0.203375 0.734239
v 0.244362 0.669353 0.222670
v 0.528098 0.384330 0.473986
v 0.505509 0.591473 -0.208764
v 0.813578 0.299192 0.002351
v 0.485704 0.306623 -0.631692
v 0.791927 -0.012200 -0.459986
v 0.194211 -0.051912 -0.848220
v 0.473274 -0.404143 -0.696689
v -0.343776 0.118663 -0.650687
v -0.545029 0.092762 -0.452848
v -0.616345 0.199950 -0.200382
v -0.524356 0.390071 -0.011422
v -0.312104 0.574167 0.025616
v -0.078903 0.666096 -0.106599
v 0.066127 0.622844 -0.346201
v 0.055128 0.464649 -0.581078
v -0.106755 0.265533 -0.701329
v 0.326501 -0.972066 0.073911
v -0.038873 -0.894721 0.297811
v -0.192396 -0.624240 0.602576
v -0.062234 -0.287184 0.845605
v 0.290709 -0.041265 0.913180
v 0.701288 0.075661 0.628034
v 0.977387 -0.109414 0.346737
v 0.989817 -0.509889 0.051135
v 0.732763 -0.820083 -0.057968
v 0.494258 -1.098451 0.605471
v 0.187492 -0.838978 0.582753
v 0.052095 -0.573212 0.777635
v 0.168323 -0.297659 0.963750
v 0.481792 -0.141254 1.054016
v 0.828922 -0.099969 0.860544
v 1.058321 -0.311417 0.697011
v 1.062651 -0.804506 0.639934
v 0.839885 -1.034346 0.596504
v 0.595483 -1.146795 1.077008
v 0.310667 -0.939162 1.103940
v 0.270387 -0.661078 1.255804
v 0.426545 -0.393540 1.394929
v 0.595442 -0.374623 1.329786
v 0.893073 -0.431272 1.330336
v 1.085447 -0.611610 1.227676
v 1.130732 -0.849957 1.172709
v 0.919351 -1.075307 1.128477
v 0.680656 -1.373158 1.416620
v 0.371597 -1.020548 1.421787
v 0.356281 -0.762864 1.486855
v 0.456630 -0.519025 1.581378
v 0.698848 -0.403124 1.661128
v 0.969599 -0.469393 1.688788
v 1.142194 -0.686825 1.543088
v 1.135876 -0.953680 1.458171
v 0.953599 -1.315290 1.473771
v 0.694724 -0.766416 2.168436
v 0.965474 -0.832703 2.228492
v 0.688406 -1.033246 2.083528
v 0.369060 -0.914948 1.881649
v 0.959156 -1.099515 2.111188
v 0.337323 -0.693578 1.849658
v 0.483633 -0.488421 1.966105
v 1.028902 -0.531268 2.037336
v 1.165365 -0.660804 1.900639
v 0.696306 -0.473024 1.973847
v 0.448696 -1.213093 1.747958
v 0.956017 -1.349384 1.751134
v 1.176667 -1.017797 1.805975
v 0.684824 -1.312454 1.775252
v 1.018279 -0.709233 2.137022
v 0.957426 -1.237246 1.912722
v 0.695522 -0.557235 2.070291
v 0.446134 -0.724569 2.109463
v 1.067193 -1.058926 1.959591
v 0.542798 -0.888488 2.010589
v 0.686036 -1.294532 1.879612
v 0.578195 -0.612954 2.056743
v 0.523180 -1.095017 1.959855
v 1.001481 -0.594262 2.119978
vt 0.516203 0.465347
vt 0.570260 0.489176
vt 0.540128 0.569187
vt 0.470638 0.525273
vt 0.424631 0.528918
vt 0.393377 0.593038
vt 0.326530 0.550218
vt 0.361655 0.499997
vt 0.261680 0.507650
vt 0.307005 0.452557
vt 0.293215 0.408274
vt 0.227912 0.365695
vt 0.285101 0.302107
vt 0.327156 0.347975
vt 0.348178 0.262474
vt 0.371788 0.311460
vt 0.413234 0.236507
vt 0.425517 0.292794
vt 0.489599 0.218116
vt 0.497478 0.292563
vt 0.592890 0.424587
vt 0.692618 0.472006
vt 0.669047 0.537181
vt 0.537489 0.405801
vt 0.541653 0.333410
vt 0.623282 0.343764
vt 0.480172 0.400429
vt 0.467550 0.358635
vt 0.466699 0.435159
vt 0.433066 0.459512
vt 0.431044 0.346846
vt 0.392754 0.448300
vt 0.397225 0.354850
vt 0.366912 0.418156
vt 0.373011 0.377517
vt 0.322673 0.214175
vt 0.253909 0.255739
vt 0.239451 0.216010
vt 0.291268 0.177514
vt 0.372064 0.171856
vt 0.427071 0.117836
vt 0.270308 0.579776
vt 0.218382 0.542153
vt 0.726837 0.415222
vt 0.206675 0.309064
vt 0.306100 0.633375
vt 0.643328 0.603262
vt 0.339726 0.058320
vt 0.322521 0.133702
vt 0.239904 0.079458
vt 0.254018 0.040942
vt 0.752738 0.572555
vt 0.703982 0.618712
vt 0.813163 0.482982
vt 0.784524 0.526729
vt 0.250354 0.640964
vt 0.225475 0.590933
vt 0.183060 0.556053
vt 0.208056 0.266967
vt 0.214470 0.120464
vt 0.194770 0.169200
vt 0.152718 0.130895
vt 0.164425 0.092121
vt 0.826595 0.610038
vt 0.788281 0.658259
vt 0.895253 0.521654
vt 0.865275 0.565526
vt 0.170532 0.657758
vt 0.145463 0.617377
vt 0.111102 0.579883
vt 0.172935 0.190583
vt 0.110661 0.638088
vt 0.124767 0.674688
vt 0.080691 0.709665
vt 0.059561 0.668378
vt 0.192933 0.057052
vt 0.210738 0.017736
vt 0.884647 0.633720
vt 0.837538 0.683716
vt 0.934636 0.554090
vt 0.911735 0.609083
vt 0.087087 0.602789
vt 0.141424 0.172476
vt 0.071115 0.071769
vt 0.099756 0.043092
vt 0.118036 0.065124
vt 0.098328 0.096305
vt 0.114682 0.052530
vt 0.081687 0.107890
vt 0.944868 0.709665
vt 0.937474 0.668198
vt 0.981177 0.697244
vt 0.964321 0.638774
vt 0.999916 0.652685
vt 0.992833 0.620580
vt 0.045447 0.699498
vt 0.014513 0.697998
vt 0.000084 0.660974
vt 0.031593 0.673625
vt 0.050140 0.027103
vt 0.093572 0.004580
vt 0.059648 0.639362
vt 0.125138 0.000084
vt 0.029466 0.649007
vt 0.032471 0.613964
vt 0.112011 0.107878
vt 0.128241 0.070223
vt 0.146353 0.052967
vt 0.093935 0.134559
vt 0.924168 0.660695
vt 0.902262 0.695061
vt 0.939906 0.629537
vt 0.982739 0.589390
vt 0.155822 0.003449
vt 0.014504 0.633001
vn -0.397931 -0.257027 -0.880642
vn -0.114719 -0.741997 -0.660451
vn -0.587329 -0.781762 -0.209479
vn -0.836360 -0.313456 -0.449660
vn -0.796686 -0.493973 0.348186
vn -0.991729 -0.079958 0.100284
vn -0.648793 0.023255 0.760582
vn -0.791314 0.334178 0.511917
vn -0.139164 0.533403 0.834284
vn -0.328959 0.735221 0.592608
vn 0.452040 0.719443 0.527268
vn 0.179022 0.935484 0.304605
vn 0.833277 0.552171 -0.026124
vn 0.494980 0.841273 -0.217322
vn 0.822382 0.119083 -0.556291
vn 0.471023 0.496658 -0.728996
vn 0.437452 -0.395459 -0.807581
vn 0.530717 -0.697195 -0.481887
vn -0.028230 -0.962401 -0.270089
vn 0.118351 0.062868 -0.990966
vn -0.310892 0.518662 -0.796442
vn -0.138249 0.731010 -0.668203
vn -0.563646 0.362041 -0.742424
vn -0.778252 0.334422 -0.531449
vn -0.126499 0.899716 -0.417707
vn -0.854305 0.448714 -0.262215
vn -0.281167 0.945830 -0.162206
vn -0.756218 0.651479 -0.060701
vn -0.529862 0.847804 -0.021210
vn 0.514939 0.718040 0.468184
vn -0.135868 0.565661 0.813318
vn -0.055422 0.791436 0.608692
vn 0.493942 0.773003 0.398053
vn 0.923063 0.383190 0.032929
vn 0.918790 -0.190161 -0.345836
vn -0.558367 -0.582904 0.590258
vn -0.509629 -0.051027 0.858852
vn -0.423322 -0.892270 0.156804
vn 0.922575 -0.334544 -0.192114
vn 0.923521 0.376202 0.074435
vn 0.928831 0.368969 0.032929
vn 0.956969 -0.241127 -0.161260
vn -0.170690 -0.980316 -0.099002
vn -0.569109 -0.777398 0.267830
vn 0.491806 -0.834864 -0.247108
vn -0.684194 -0.419843 0.596271
vn -0.605213 0.268014 0.749565
vn 0.518571 0.827448 0.215278
vn -0.053865 0.904141 0.423780
vn -0.027131 0.990509 0.134678
vn 0.482162 0.874996 0.043214
vn -0.255470 -0.938414 -0.232521
vn -0.822474 -0.563433 0.077792
vn 0.562731 -0.760247 -0.324534
vn -0.936430 -0.033723 0.349193
vn -0.611011 0.630818 0.478195
vn -0.988800 0.037080 0.144414
vn -0.886258 -0.463088 -0.006775
vn -0.767113 -0.616352 0.177831
vn -0.886929 -0.267129 0.376751
vn 0.928739 0.364849 -0.065371
vn 0.952025 -0.248726 -0.178106
vn -0.217994 -0.939665 -0.263558
vn 0.526231 -0.811243 -0.254799
vn -0.699545 0.686422 0.198584
vn -0.265389 0.044160 0.963103
vn 0.349162 -0.060274 0.935087
vn 0.385113 0.504562 0.772698
vn -0.134251 0.587207 0.798212
vn 0.804102 0.078280 0.589282
vn -0.335582 0.525132 0.782037
vn -0.575030 -0.458235 0.677725
vn -0.237251 -0.793939 0.559740
vn -0.347758 -0.432417 0.831874
vn 0.389294 -0.747459 0.538255
vn 0.371532 -0.524613 0.765954
vn 0.817591 -0.358562 0.450484
vn -0.589404 -0.310007 0.745964
vn -0.957121 0.177709 0.228736
vn -0.598926 0.016968 0.800592
vn -0.535264 0.749840 0.388836
vn -0.072604 0.901608 0.426344
vn 0.520371 0.736991 0.431318
vn 0.933378 0.295511 0.203558
vn -0.290567 -0.925779 0.241768
vn 0.451216 -0.875607 0.172277
vn 0.943602 -0.285684 0.167241
s 1
f 1/1/1 2/2/2 4/3/3
f 1/1/1 4/3/3 3/4/4
f 3/5/4 4/6/3 6/7/5
f 3/5/4 6/7/5 5/8/6
f 5/8/6 6/7/5 8/9/7
f 5/8/6 8/9/7 7/10/8
f 7/11/8 8/12/7 10/13/9
f 7/11/8 10/13/9 9/14/10
f 9/14/10 10/13/9 12/15/11
f 9/14/10 12/15/11 11/16/12
f 11/16/12 12/15/11 14/17/13
f 11/16/12 14/17/13 13/18/14
f 13/18/14 14/17/13 16/19/15
f 13/18/14 16/19/15 15/20/16
f 2/2/2 18/21/17 36/22/18
f 2/2/2 36/22/18 28/23/19
f 2/2/2 1/1/1 17/24/20
f 2/2/2 17/24/20 18/21/17
f 15/25/16 16/26/15 18/21/17
f 15/25/16 18/21/17 17/24/20
f 15/25/16 17/24/20 27/27/21
f 15/25/16 27/27/21 26/28/22
f 19/29/23 26/28/22 27/27/21
f 19/29/23 20/30/24 26/28/22
f 20/30/24 25/31/25 26/28/22
f 20/30/24 21/32/26 25/31/25
f 21/32/26 24/33/27 25/31/25
f 21/32/26 22/34/28 24/33/27
f 22/34/28 23/35/29 24/33/27
f 11/16/12 13/18/14 25/31/25
f 11/16/12 25/31/25 24/33/27
f 7/11/8 9/14/10 23/35/29
f 7/11/8 23/35/29 22/34/28
f 3/5/4 5/8/6 21/32/26
f 3/5/4 21/32/26 20/30/24
f 1/1/1 3/4/4 20/30/24
f 1/1/1 20/30/24 19/29/23
f 17/24/20 1/1/1 19/29/23
f 17/24/20 19/29/23 27/27/21
f 13/18/14 15/20/16 26/28/22
f 13/18/14 26/28/22 25/31/25
f 9/14/10 11/16/12 24/33/27
f 9/14/10 24/33/27 23/35/29
f 5/8/6 7/10/8 22/34/28
f 5/8/6 22/34/28 21/32/26
f 33/36/30 32/37/31 41/38/32
f 33/36/30 41/38/32 42/39/33
f 16/19/15 14/17/13 34/40/34
f 16/19/15 34/40/34 35/41/35
f 12/15/11 10/13/9 32/37/31
f 12/15/11 32/37/31 33/36/30
f 8/9/7 6/7/5 30/42/36
f 8/9/7 30/42/36 31/43/37
f 18/21/17 16/26/15 35/44/35
f 18/21/17 35/44/35 36/22/18
f 14/17/13 12/15/11 33/36/30
f 14/17/13 33/36/30 34/40/34
f 10/13/9 8/12/7 31/45/37
f 10/13/9 31/45/37 32/37/31
f 6/7/5 4/6/3 29/46/38
f 6/7/5 29/46/38 30/42/36
f 4/3/3 2/2/2 28/23/19
f 4/3/3 28/23/19 29/47/38
f 44/48/39 43/49/40 52/50/41
f 44/48/39 52/50/41 53/51/42
f 34/40/34 33/36/30 42/39/33
f 34/40/34 42/39/33 43/49/40
f 35/41/35 34/40/34 43/49/40
f 35/41/35 43/49/40 44/48/39
f 29/47/38 28/23/19 37/52/43
f 29/47/38 37/52/43 38/53/44
f 36/22/18 35/44/35 44/54/39
f 36/22/18 44/54/39 45/55/45
f 30/42/36 29/46/38 38/56/44
f 30/42/36 38/56/44 39/57/46
f 28/23/19 36/22/18 45/55/45
f 28/23/19 45/55/45 37/52/43
f 31/43/37 30/42/36 39/57/46
f 31/43/37 39/57/46 40/58/47
f 32/37/31 31/45/37 40/59/47
f 32/37/31 40/59/47 41/38/32
f 51/60/48 50/61/49 59/62/50
f 51/60/48 59/62/50 60/63/51
f 38/53/44 37/52/43 46/64/52
f 38/53/44 46/64/52 47/65/53
f 45/55/45 44/54/39 53/66/42
f 45/55/45 53/66/42 54/67/54
f 39/57/46 38/56/44 47/68/53
f 39/57/46 47/68/53 48/69/55
f 37/52/43 45/55/45 54/67/54
f 37/52/43 54/67/54 46/64/52
f 40/58/47 39/57/46 48/69/55
f 40/58/47 48/69/55 49/70/56
f 41/38/32 40/59/47 49/71/56
f 41/38/32 49/71/56 50/61/49
f 42/39/33 41/38/32 50/61/49
f 42/39/33 50/61/49 51/60/48
f 43/49/40 42/39/33 51/60/48
f 43/49/40 51/60/48 52/50/41
f 57/72/57 56/73/58 74/74/59
f 57/72/57 74/74/59 67/75/60
f 52/50/41 51/60/48 60/63/51
f 52/50/41 60/63/51 61/76/61
f 53/51/42 52/50/41 61/76/61
f 53/51/42 61/76/61 62/77/62
f 47/65/53 46/64/52 55/78/63
f 47/65/53 55/78/63 56/79/58
f 54/67/54 53/66/42 62/80/62
f 54/67/54 62/80/62 63/81/64
f 48/69/55 47/68/53 56/73/58
f 48/69/55 56/73/58 57/72/57
f 46/64/52 54/67/54 63/81/64
f 46/64/52 63/81/64 55/78/63
f 49/70/56 48/69/55 57/72/57
f 49/70/56 57/72/57 58/82/65
f 50/61/49 49/71/56 58/83/65
f 50/61/49 58/83/65 59/62/50
f 64/84/66 65/85/67 87/86/68
f 64/84/66 87/86/68 80/87/69
f 65/85/67 78/88/70 87/86/68
f 85/89/71 64/84/66 80/87/69
f 86/90/72 84/91/73 66/92/74
f 84/91/73 79/93/75 68/94/76
f 84/91/73 68/94/76 66/92/74
f 79/93/75 82/95/77 68/94/76
f 86/96/72 66/97/74 64/98/66
f 86/96/72 64/98/66 83/99/78
f 66/100/74 68/101/76 65/85/67
f 66/100/74 65/85/67 64/84/66
f 58/82/65 57/72/57 69/102/79
f 82/103/77 78/88/70 65/85/67
f 82/103/77 65/85/67 68/101/76
f 81/104/80 83/99/78 64/98/66
f 58/82/65 69/102/79 70/105/81
f 73/106/82 71/107/83 60/63/51
f 73/106/82 60/63/51 59/62/50
f 72/108/84 61/76/61 60/63/51
f 72/108/84 60/63/51 71/107/83
f 58/83/65 70/109/81 73/106/82
f 58/83/65 73/106/82 59/62/50
f 56/79/58 55/78/63 77/110/85
f 56/79/58 77/110/85 74/111/59
f 55/78/63 63/81/64 75/112/86
f 55/78/63 75/112/86 77/110/85
f 63/81/64 62/80/62 76/113/87
f 63/81/64 76/113/87 75/112/86
f 62/77/62 61/76/61 72/108/84
f 62/77/62 72/108/84 76/114/87
f 85/115/71 81/104/80 64/98/66
f 74/111/59 77/110/85 84/91/73
f 74/111/59 84/91/73 86/90/72
f 75/112/86 76/113/87 82/95/77
f 75/112/86 82/95/77 79/93/75
f 76/114/87 72/108/84 78/88/70
f 76/114/87 78/88/70 82/103/77
f 70/105/81 69/102/79 81/104/80
f 70/105/81 81/104/80 85/115/71
f 80/87/69 87/86/68 71/107/83
f 80/87/69 71/107/83 73/106/82
f 70/109/81 85/89/71 80/87/69
f 70/109/81 80/87/69 73/106/82
f 77/110/85 75/112/86 79/93/75
f 77/110/85 79/93/75 84/91/73
f 67/75/60 86/96/72 83/99/78
f 69/102/79 67/75/60 83/99/78
f 69/102/79 83/99/78 81/104/80
f 78/88/70 72/108/84 71/107/83
f 78/88/70 71/107/83 87/86/68
f 57/72/57 67/75/60 69/102/79
f 67/75/60 74/74/59 86/96/72
