# Blender v2.65 (sub 0) OBJ File: 'pick_axe.blend'
# www.blender.org
o Cylinder.001
v -0.258664 2.051872 0.521606
v 0.258664 2.051872 0.521606
v -0.258664 2.337843 0.521606
v 0.258664 2.337843 0.521606
v -0.205702 1.918420 0.992575
v 0.205702 1.918420 0.992575
v -0.205702 2.127059 1.083067
v 0.205702 2.127059 1.083067
v -0.151881 1.732785 1.329280
v 0.154743 1.737441 1.331732
v -0.154743 1.866364 1.433617
v 0.151881 1.871020 1.436069
v -0.107805 1.564123 1.539162
v 0.111784 1.567147 1.541411
v -0.109856 1.647118 1.627743
v 0.109734 1.650142 1.629992
v 0.001528 1.436100 1.735780
v -0.258664 2.051872 -0.521606
v -0.258664 2.105289 -0.004278
v 0.258664 2.105289 -0.004278
v 0.258664 2.051872 -0.521606
v -0.258664 2.337843 -0.521606
v -0.258664 2.391260 -0.004278
v 0.258664 2.391260 -0.004278
v 0.258664 2.337843 -0.521606
v -0.205702 1.918420 -0.992575
v 0.205702 1.918420 -0.992575
v -0.205702 2.127059 -1.083067
v 0.205702 2.127059 -1.083067
v -0.151881 1.732785 -1.329280
v 0.154743 1.737441 -1.331732
v -0.154743 1.866364 -1.433617
v 0.151881 1.871020 -1.436069
v -0.107805 1.564123 -1.539162
v 0.111784 1.567147 -1.541411
v -0.109856 1.647118 -1.627743
v 0.109734 1.650142 -1.629992
v 0.001528 1.436100 -1.735780
v 0.000000 -0.468743 -0.131608
v 0.000000 2.488658 -0.131608
v 0.113976 -0.468743 -0.065804
v 0.113976 2.488658 -0.065804
v 0.113976 -0.468743 0.065804
v 0.113976 2.488658 0.065804
v -0.000000 -0.468743 0.131608
v -0.000000 2.488658 0.131608
v -0.113976 -0.468743 0.065804
v -0.113976 2.488658 0.065804
v -0.113976 -0.468743 -0.065804
v -0.113976 2.488658 -0.065804
vt 0.475055 0.281168
vt 0.352173 0.218227
vt 0.414644 0.142068
vt 0.532776 0.194053
vt 0.385514 0.500263
vt 0.259458 0.442113
vt 0.287445 0.340346
vt 0.415402 0.400868
vt 0.450103 0.023216
vt 0.272831 0.099866
vt 0.290712 0.000178
vt 0.580091 0.068544
vt 0.172553 0.260414
vt 0.135283 0.332539
vt 0.054693 0.230215
vt 0.084270 0.184548
vt 0.229428 0.162309
vt 0.156586 0.075624
vt 0.127795 0.119049
vt 0.061677 0.091171
vt 0.076608 0.065289
vt 0.161613 0.000178
vt 0.008716 0.150647
vt 0.034706 0.127310
vt 0.069009 0.012852
vt 0.000178 0.066669
vt 0.163623 0.642566
vt 0.226155 0.718663
vt 0.105205 0.780609
vt 0.047329 0.693646
vt 0.580448 0.642678
vt 0.580448 0.541857
vt 0.711803 0.541857
vt 0.711803 0.642678
vt 0.194648 0.999822
vt 0.164947 0.900356
vt 0.290832 0.840747
vt 0.318689 0.942546
vt 0.128176 0.523670
vt 0.287588 0.500620
vt 0.305471 0.600317
vt 0.000178 0.568159
vt 0.405734 0.760894
vt 0.494051 0.685039
vt 0.523625 0.730724
vt 0.442978 0.833052
vt 0.348879 0.662769
vt 0.421739 0.576082
vt 0.501735 0.565755
vt 0.516665 0.591644
vt 0.450530 0.619518
vt 0.416717 0.500620
vt 0.543637 0.627797
vt 0.569629 0.651144
vt 0.509342 0.513307
vt 0.578182 0.567147
vt 0.648080 0.020843
vt 0.647904 0.537367
vt 0.580448 0.541500
vt 0.580624 0.024976
vt 0.985361 0.000178
vt 0.985184 0.516701
vt 0.917728 0.520835
vt 0.917904 0.004311
vt 0.850272 0.524968
vt 0.850448 0.008444
vt 0.782816 0.529101
vt 0.782992 0.012577
vt 0.638327 0.693159
vt 0.638327 0.659742
vt 0.609388 0.643034
vt 0.609388 0.709868
vt 0.580448 0.659743
vt 0.580448 0.693159
vt 0.715536 0.016710
vt 0.715360 0.533234
vt 0.696563 0.659742
vt 0.696563 0.693159
vt 0.667624 0.643034
vt 0.667624 0.709868
vt 0.638684 0.659743
vt 0.638684 0.693159
vn -1.000000 -0.000000 0.000000
vn 1.000000 -0.000000 0.000000
vn 0.000000 0.936200 0.351469
vn 0.000000 -0.994881 -0.101056
vn 0.000000 0.994881 0.101056
vn 0.991823 -0.056775 0.114298
vn -0.995203 -0.017607 0.096234
vn 0.000000 -0.962121 -0.272622
vn 0.995203 -0.017607 0.096234
vn -0.987561 -0.116484 0.105619
vn -0.007248 0.805963 0.591921
vn 0.007328 -0.878971 -0.476819
vn -0.991924 -0.068915 0.106475
vn 0.988467 -0.087609 0.123523
vn -0.016350 0.661193 0.750038
vn 0.016965 -0.777736 -0.628362
vn 0.017135 -0.833504 -0.552248
vn -0.900015 -0.328264 0.286732
vn 0.901908 -0.304586 0.306250
vn -0.015335 0.449243 0.893278
vn 0.000000 0.000000 1.000000
vn 0.000000 0.936200 -0.351469
vn 0.000000 -0.994711 0.102710
vn 0.000000 0.994711 -0.102709
vn 0.991823 -0.056775 -0.114298
vn -0.995203 -0.017607 -0.096234
vn 0.000000 -0.962121 0.272622
vn 0.995203 -0.017607 -0.096234
vn -0.987561 -0.116484 -0.105619
vn -0.007248 0.805963 -0.591921
vn 0.007328 -0.878971 0.476819
vn -0.991924 -0.068915 -0.106475
vn 0.988467 -0.087609 -0.123523
vn -0.016350 0.661193 -0.750038
vn 0.016965 -0.777736 0.628362
vn 0.017135 -0.833504 0.552248
vn -0.900015 -0.328264 -0.286732
vn 0.901908 -0.304586 -0.306250
vn -0.015335 0.449243 -0.893278
vn 0.500000 0.000000 -0.866025
vn 0.500000 0.000000 0.866025
vn -0.500000 0.000000 0.866025
vn -0.000000 1.000000 0.000000
vn -0.500000 0.000000 -0.866025
vn 0.000000 -1.000000 -0.000000
s off
f 19/1/1 1/2/1 3/3/1
f 19/1/1 3/3/1 23/4/1
f 24/5/2 4/6/2 2/7/2
f 24/5/2 2/7/2 20/8/2
f 4/9/3 3/3/3 7/10/3
f 4/9/3 7/10/3 8/11/3
f 1/2/4 19/1/4 20/8/4
f 1/2/4 20/8/4 2/7/4
f 4/9/5 24/12/5 23/4/5
f 4/9/5 23/4/5 3/3/5
f 6/13/6 8/14/6 12/15/6
f 6/13/6 12/15/6 10/16/6
f 3/3/7 1/2/7 5/17/7
f 3/3/7 5/17/7 7/10/7
f 1/2/8 2/7/8 6/13/8
f 1/2/8 6/13/8 5/17/8
f 2/7/9 4/6/9 8/14/9
f 2/7/9 8/14/9 6/13/9
f 11/18/10 9/19/10 13/20/10
f 11/18/10 13/20/10 15/21/10
f 8/11/11 7/10/11 11/18/11
f 8/11/11 11/18/11 12/22/11
f 5/17/12 6/13/12 10/16/12
f 5/17/12 10/16/12 9/19/12
f 7/10/13 5/17/13 9/19/13
f 7/10/13 9/19/13 11/18/13
f 10/16/14 12/15/14 16/23/14
f 10/16/14 16/23/14 14/24/14
f 12/22/15 11/18/15 15/21/15
f 12/22/15 15/21/15 16/25/15
f 9/19/16 10/16/16 14/24/16
f 9/19/16 14/24/16 13/20/16
f 13/20/17 14/24/17 17/26/17
f 15/21/18 13/20/18 17/26/18
f 14/24/19 16/23/19 17/26/19
f 16/25/20 15/21/20 17/26/20
f 22/27/1 18/28/1 19/29/1
f 22/27/1 19/29/1 23/30/1
f 23/31/21 19/32/21 20/33/21
f 23/31/21 20/33/21 24/34/21
f 24/35/2 20/36/2 21/37/2
f 24/35/2 21/37/2 25/38/2
f 25/39/22 29/40/22 28/41/22
f 25/39/22 28/41/22 22/27/22
f 18/28/23 21/37/23 20/36/23
f 18/28/23 20/36/23 19/29/23
f 25/39/24 22/27/24 23/30/24
f 25/39/24 23/30/24 24/42/24
f 27/43/25 31/44/25 33/45/25
f 27/43/25 33/45/25 29/46/25
f 22/27/26 28/41/26 26/47/26
f 22/27/26 26/47/26 18/28/26
f 18/28/27 26/47/27 27/43/27
f 18/28/27 27/43/27 21/37/27
f 21/37/28 27/43/28 29/46/28
f 21/37/28 29/46/28 25/38/28
f 32/48/29 36/49/29 34/50/29
f 32/48/29 34/50/29 30/51/29
f 29/40/30 33/52/30 32/48/30
f 29/40/30 32/48/30 28/41/30
f 26/47/31 30/51/31 31/44/31
f 26/47/31 31/44/31 27/43/31
f 28/41/32 32/48/32 30/51/32
f 28/41/32 30/51/32 26/47/32
f 31/44/33 35/53/33 37/54/33
f 31/44/33 37/54/33 33/45/33
f 33/52/34 37/55/34 36/49/34
f 33/52/34 36/49/34 32/48/34
f 30/51/35 34/50/35 35/53/35
f 30/51/35 35/53/35 31/44/35
f 34/50/36 38/56/36 35/53/36
f 36/49/37 38/56/37 34/50/37
f 35/53/38 38/56/38 37/54/38
f 37/55/39 38/56/39 36/49/39
f 39/57/40 40/58/40 42/59/40
f 39/57/40 42/59/40 41/60/40
f 41/61/2 42/62/2 44/63/2
f 41/61/2 44/63/2 43/64/2
f 43/64/41 44/63/41 46/65/41
f 43/64/41 46/65/41 45/66/41
f 45/66/42 46/65/42 48/67/42
f 45/66/42 48/67/42 47/68/42
f 42/69/43 40/70/43 50/71/43
f 42/69/43 50/71/43 44/72/43
f 50/71/43 48/73/43 44/72/43
f 48/73/43 46/74/43 44/72/43
f 49/75/44 50/76/44 40/58/44
f 49/75/44 40/58/44 39/57/44
f 47/68/1 48/67/1 50/76/1
f 47/68/1 50/76/1 49/75/1
f 39/77/45 41/78/45 49/79/45
f 41/78/45 43/80/45 49/79/45
f 43/80/45 47/81/45 49/79/45
f 43/80/45 45/82/45 47/81/45
