# Blender v2.66 (sub 1) OBJ File: 'plane.blend'
# www.blender.org
o Plane
v 8.000000 1.450747 8.000000
v -8.000000 0.168445 8.000000
v 8.000000 -2.289000 -8.000000
v -8.000000 -2.754905 -8.000000
v 6.545455 1.080577 8.000000
v 5.090909 0.491688 8.000000
v 3.636364 -0.183197 8.000000
v 2.181818 -0.687909 8.000000
v 0.727273 -0.925663 8.000000
v -0.727273 -0.910515 8.000000
v -2.181818 -0.689355 8.000000
v -3.636364 -0.341907 8.000000
v -5.090909 0.019276 8.000000
v -6.545455 0.248799 8.000000
v 6.545455 -2.679045 -8.000000
v 5.090909 -3.001529 -8.000000
v 3.636364 -3.215424 -8.000000
v 2.181818 -3.254303 -8.000000
v 0.727273 -3.150494 -8.000000
v -0.727273 -2.971363 -8.000000
v -2.181818 -2.776438 -8.000000
v -3.636364 -2.617405 -8.000000
v -5.090909 -2.538108 -8.000000
v -6.545455 -2.574555 -8.000000
v 8.000000 0.867573 6.545455
v 8.000000 0.428017 5.090909
v 8.000000 0.123445 3.636364
v 8.000000 -0.070840 2.181818
v 8.000000 -0.195593 0.727273
v 8.000000 -0.307626 -0.727273
v 8.000000 -0.479812 -2.181818
v 8.000000 -0.801079 -3.636364
v 8.000000 -1.336066 -5.090909
v 8.000000 -1.905036 -6.545455
v -8.000000 -2.676548 -6.545455
v -8.000000 -2.276493 -5.090909
v -8.000000 -1.556031 -3.636364
v -8.000000 -0.508555 -2.181818
v -8.000000 0.590295 -0.727273
v -8.000000 1.452707 0.727273
v -8.000000 1.905494 2.181818
v -8.000000 1.890091 3.636364
v -8.000000 1.462559 5.090909
v -8.000000 0.793575 6.545455
v -6.545455 0.824254 6.545455
v -6.545455 1.448359 5.090909
v -6.545455 1.847204 3.636364
v -6.545455 1.856025 2.181818
v -6.545455 1.419205 0.727273
v -6.545455 0.590269 -0.727273
v -6.545455 -0.468103 -2.181818
v -6.545455 -1.484088 -3.636364
v -6.545455 -2.183472 -5.090909
v -6.545455 -2.547273 -6.545455
v -5.090909 0.472189 6.545455
v -5.090909 1.000943 5.090909
v -5.090909 1.357039 3.636364
v -5.090909 1.386653 2.181818
v -5.090909 1.030624 0.727273
v -5.090909 0.324459 -0.727273
v -5.090909 -0.601659 -2.181818
v -5.090909 -1.522884 -3.636364
v -5.090909 -2.188660 -5.090909
v -5.090909 -2.532433 -6.545455
v -3.636364 -0.064110 6.545455
v -3.636364 0.326307 5.090909
v -3.636364 0.617532 3.636364
v -3.636364 0.671859 2.181818
v -3.636364 0.425694 0.727273
v -3.636364 -0.110448 -0.727273
v -3.636364 -0.851943 -2.181818
v -3.636364 -1.640058 -3.636364
v -3.636364 -2.265429 -5.090909
v -3.636364 -2.605462 -6.545455
v -2.181818 -0.617546 6.545455
v -2.181818 -0.397199 5.090909
v -2.181818 -0.195697 3.636364
v -2.181818 -0.130026 2.181818
v -2.181818 -0.266785 0.727273
v -2.181818 -0.622176 -0.727273
v -2.181818 -1.162018 -2.181818
v -2.181818 -1.801732 -3.636364
v -2.181818 -2.384930 -5.090909
v -2.181818 -2.735320 -6.545455
v -0.727273 -1.052432 6.545455
v -0.727273 -1.018882 5.090909
v -0.727273 -0.929333 3.636364
v -0.727273 -0.876821 2.181818
v -0.727273 -0.927940 0.727273
v -0.727273 -1.122854 -0.727273
v -0.727273 -1.475284 -2.181818
v -0.727273 -1.972519 -3.636364
v -0.727273 -2.516100 -5.090909
v -0.727273 -2.886495 -6.545455
v 0.727273 -1.264495 6.545455
v 0.727273 -1.415695 5.090909
v 0.727273 -1.452379 3.636364
v 0.727273 -1.442499 2.181818
v 0.727273 -1.448838 0.727273
v 0.727273 -1.529015 -0.727273
v 0.727273 -1.735478 -2.181818
v 0.727273 -2.115513 -3.636364
v 0.727273 -2.625652 -5.090909
v 0.727273 -3.019007 -6.545455
v 2.181818 -1.180870 6.545455
v 2.181818 -1.492244 5.090909
v 2.181818 -1.656145 3.636364
v 2.181818 -1.717184 2.181818
v 2.181818 -1.730469 0.727273
v 2.181818 -1.761601 -0.727273
v 2.181818 -1.886679 -2.181818
v 2.181818 -2.192298 -3.636364
v 2.181818 -2.678086 -5.090909
v 2.181818 -3.088404 -6.545455
v 3.636364 -0.760106 6.545455
v 3.636364 -1.180787 5.090909
v 3.636364 -1.454256 3.636364
v 3.636364 -1.607154 2.181818
v 3.636364 -1.683755 0.727273
v 3.636364 -1.745961 -0.727273
v 3.636364 -1.873303 -2.181818
v 3.636364 -2.162943 -3.636364
v 3.636364 -2.635678 -5.090909
v 3.636364 -3.045762 -6.545455
v 5.090909 -0.104672 6.545455
v 5.090909 -0.574849 5.090909
v 5.090909 -0.918169 3.636364
v 5.090909 -1.151564 2.181818
v 5.090909 -1.309567 0.727273
v 5.090909 -1.444309 -0.727273
v 5.090909 -1.625527 -2.181818
v 5.090909 -1.940560 -3.636364
v 5.090909 -2.416107 -5.090909
v 5.090909 -2.829423 -6.545455
v 6.545455 0.481878 6.545455
v 6.545455 0.003819 5.090909
v 6.545455 -0.352592 3.636364
v 6.545455 -0.603329 2.181818
v 6.545455 -0.781352 0.727273
v 6.545455 -0.936600 -0.727273
v 6.545455 -1.135999 -2.181818
v 6.545455 -1.463458 -3.636364
v 6.545455 -1.961275 -5.090909
v 6.545455 -2.430985 -6.545455
vt 0.094920 0.099760
vt 0.002703 0.108766
vt 0.094892 0.008660
vt 1.000000 0.101503
vt 0.909135 0.103246
vt 0.999394 0.013511
vt 0.818660 0.102894
vt 0.908354 0.016189
vt 0.728485 0.100933
vt 0.817806 0.016232
vt 0.638503 0.097932
vt 0.727652 0.014156
vt 0.548594 0.094540
vt 0.637770 0.010621
vt 0.458621 0.091490
vt 0.548010 0.006428
vt 0.368434 0.089596
vt 0.458196 0.002525
vt 0.277864 0.089753
vt 0.368126 0.000000
vt 0.186702 0.093089
vt 0.277569 0.000088
vt 0.186415 0.003380
vt 0.999039 1.019174
vt 0.908340 1.020021
vt 0.905505 0.943998
vt 0.996034 0.944061
vt 0.902504 0.868866
vt 0.992880 0.869750
vt 0.900271 0.789610
vt 0.990549 0.791019
vt 0.899367 0.703213
vt 0.989623 0.704743
vt 0.990293 0.609895
vt 0.899983 0.608658
vt 0.992359 0.507547
vt 0.901935 0.506923
vt 0.904669 0.400988
vt 0.995231 0.400871
vt 0.997928 0.295135
vt 0.907258 0.295828
vt 0.999510 0.195386
vt 0.908769 0.196465
vt 0.818699 1.015195
vt 0.816281 0.936929
vt 0.813605 0.860051
vt 0.811517 0.780012
vt 0.810543 0.693996
vt 0.810883 0.600920
vt 0.812416 0.501432
vt 0.814700 0.397918
vt 0.816966 0.294494
vt 0.818362 0.195746
vt 0.729505 1.007958
vt 0.727685 0.926486
vt 0.725480 0.847076
vt 0.723614 0.765849
vt 0.722555 0.680286
vt 0.722521 0.589220
vt 0.723475 0.492846
vt 0.725128 0.392712
vt 0.726941 0.291725
vt 0.728199 0.193717
vt 0.640265 1.000973
vt 0.639147 0.915730
vt 0.637522 0.833205
vt 0.635962 0.750336
vt 0.634864 0.664980
vt 0.634457 0.575918
vt 0.634795 0.482853
vt 0.635761 0.386411
vt 0.637068 0.288141
vt 0.638182 0.190905
vt 0.550595 0.996300
vt 0.550205 0.907144
vt 0.549217 0.821200
vt 0.548038 0.736281
vt 0.546986 0.650684
vt 0.546286 0.563190
vt 0.546077 0.473063
vt 0.546405 0.380052
vt 0.547226 0.284390
vt 0.548205 0.187880
vt 0.460222 0.995399
vt 0.460504 0.902637
vt 0.460145 0.813311
vt 0.459397 0.726081
vt 0.458489 0.639703
vt 0.457637 0.553029
vt 0.457037 0.465003
vt 0.456867 0.374664
vt 0.457289 0.281148
vt 0.458154 0.185250
vt 0.368988 0.999128
vt 0.369794 0.903544
vt 0.369982 0.811285
vt 0.369667 0.721726
vt 0.369001 0.634050
vt 0.368173 0.547249
vt 0.367406 0.460121
vt 0.366958 0.371272
vt 0.367126 0.279119
vt 0.367909 0.183666
vt 0.276843 1.007744
vt 0.277936 0.910624
vt 0.278496 0.816364
vt 0.278555 0.724799
vt 0.278202 0.635441
vt 0.277590 0.547480
vt 0.276928 0.459783
vt 0.276488 0.370893
vt 0.276602 0.279032
vt 0.277340 0.183819
vt 0.184118 1.019477
vt 0.185277 0.922000
vt 0.186006 0.826833
vt 0.186303 0.733989
vt 0.186225 0.643158
vt 0.185890 0.553707
vt 0.185475 0.464682
vt 0.185219 0.374806
vt 0.185420 0.282480
vt 0.186167 0.187215
vt 0.091686 1.029634
vt 0.092853 0.932115
vt 0.093609 0.836804
vt 0.093951 0.743720
vt 0.093932 0.652571
vt 0.093665 0.562754
vt 0.093320 0.473353
vt 0.093126 0.383144
vt 0.093369 0.290591
vt 0.094192 0.194918
vt 0.000000 1.035788
vt 0.001114 0.938552
vt 0.001739 0.843947
vt 0.001904 0.751812
vt 0.001692 0.661697
vt 0.001244 0.572854
vt 0.000752 0.484245
vt 0.000465 0.394534
vt 0.000687 0.302094
vt 0.001637 0.205741
vt 0.003138 0.015178
vn -0.294504 0.928037 -0.227943
vn -0.307993 0.909238 -0.279916
vn -0.253334 0.949889 -0.182989
vn -0.081637 0.984802 -0.153172
vn -0.053407 0.989257 -0.136052
vn -0.105686 0.993713 -0.036134
vn 0.019959 0.992431 -0.121128
vn -0.070467 0.997375 -0.014985
vn 0.068819 0.990509 -0.118870
vn 0.013611 0.999878 -0.004975
vn 0.096194 0.986724 -0.130619
vn 0.076601 0.996948 -0.013153
vn 0.097751 0.983734 -0.150670
vn 0.113315 0.992920 -0.035493
vn 0.070681 0.982360 -0.173040
vn 0.119327 0.990661 -0.065737
vn 0.011963 0.981750 -0.189734
vn 0.090304 0.991302 -0.095523
vn -0.086398 0.977386 -0.192846
vn 0.021393 0.993255 -0.113926
vn -0.205298 0.959044 -0.195135
vn -0.085696 0.989563 -0.115818
vn -0.191076 0.973266 -0.127384
vn -0.036073 0.924039 0.380535
vn 0.068239 0.934538 0.349162
vn 0.104556 0.920652 0.376049
vn -0.012726 0.916349 0.400098
vn 0.145116 0.934538 0.324900
vn 0.013794 0.938017 0.346263
vn 0.168798 0.976074 0.136967
vn 0.030274 0.988800 0.146123
vn 0.166662 0.976074 -0.139470
vn 0.033631 0.988922 -0.144505
vn 0.023621 0.914762 -0.403241
vn 0.134770 0.913511 -0.383770
vn -0.000275 0.835719 -0.549120
vn 0.085726 0.842647 -0.531541
vn 0.035463 0.816034 -0.576861
vn -0.022370 0.804590 -0.593371
vn -0.038667 0.858730 -0.510910
vn -0.005158 0.865200 -0.501328
vn -0.056734 0.934477 -0.351421
vn -0.030427 0.940214 -0.339122
vn 0.220985 0.939055 0.263222
vn 0.278695 0.910184 0.306375
vn 0.341807 0.898587 0.275063
vn 0.377667 0.917417 0.125187
vn 0.366344 0.923917 -0.110233
vn 0.303537 0.896084 -0.323801
vn 0.210242 0.855464 -0.473220
vn 0.118107 0.841792 -0.526688
vn 0.053987 0.880764 -0.470412
vn 0.029725 0.946226 -0.322062
vn 0.266945 0.952300 0.147771
vn 0.342448 0.915586 0.210700
vn 0.419874 0.882687 0.210974
vn 0.462355 0.879849 0.109684
vn 0.454482 0.888089 -0.068545
vn 0.390423 0.888028 -0.242714
vn 0.286569 0.877621 -0.384198
vn 0.174535 0.874081 -0.453291
vn 0.094119 0.899258 -0.427137
vn 0.066958 0.948607 -0.309214
vn 0.191015 0.980377 0.048372
vn 0.302011 0.950041 0.078402
vn 0.411573 0.901273 0.135197
vn 0.462752 0.882229 0.086581
vn 0.463424 0.885586 -0.030519
vn 0.409925 0.898038 -0.159490
vn 0.312998 0.906857 -0.282113
vn 0.198889 0.909513 -0.364940
vn 0.112857 0.919004 -0.377697
vn 0.085849 0.950346 -0.299081
vn 0.116764 0.991272 -0.060793
vn 0.198828 0.978576 -0.053224
vn 0.309946 0.950285 0.028962
vn 0.390088 0.919401 0.049898
vn 0.403851 0.914792 -0.004913
vn 0.366436 0.926298 -0.087436
vn 0.287210 0.940214 -0.182867
vn 0.186804 0.943205 -0.274606
vn 0.107517 0.938200 -0.328898
vn 0.083071 0.952300 -0.293619
vn -0.042085 0.979949 -0.194647
vn 0.046693 0.985717 -0.161687
vn 0.144597 0.986450 -0.077273
vn 0.219275 0.975585 -0.009949
vn 0.262917 0.964782 -0.004944
vn 0.254982 0.966155 -0.038545
vn 0.205115 0.973174 -0.103946
vn 0.134495 0.970855 -0.198279
vn 0.075564 0.954588 -0.288125
vn 0.056917 0.954741 -0.291910
vn -0.215766 0.932035 -0.291055
vn -0.154790 0.954711 -0.253975
vn -0.074984 0.984680 -0.157231
vn -0.002197 0.996796 -0.079775
vn 0.048250 0.998291 -0.032746
vn 0.069948 0.997223 -0.024812
vn 0.064211 0.995911 -0.063143
vn 0.040254 0.987457 -0.152470
vn 0.015076 0.964782 -0.262551
vn 0.005676 0.956450 -0.291726
vn -0.346568 0.875973 -0.335429
vn -0.322306 0.898068 -0.299234
vn -0.285134 0.933836 -0.215949
vn -0.237434 0.961608 -0.137486
vn -0.188208 0.979034 -0.077731
vn -0.145054 0.988098 -0.050966
vn -0.112980 0.991089 -0.070437
vn -0.093844 0.984649 -0.146977
vn -0.086245 0.962981 -0.255257
vn -0.085726 0.953398 -0.289224
vn -0.368725 0.860927 -0.350414
vn -0.369610 0.873562 -0.316630
vn -0.361461 0.899197 -0.246498
vn -0.343608 0.922208 -0.177282
vn -0.318491 0.940123 -0.121128
vn -0.290078 0.952605 -0.091433
vn -0.262917 0.959441 -0.101413
vn -0.240822 0.956847 -0.162603
vn -0.225715 0.939909 -0.256142
vn -0.216285 0.933439 -0.286172
vn -0.285501 0.886349 -0.364483
vn -0.297006 0.896023 -0.329936
vn -0.310984 0.914579 -0.258431
vn -0.326182 0.926389 -0.188055
vn -0.339824 0.931242 -0.131474
vn -0.350444 0.931089 -0.101138
vn -0.357158 0.927702 -0.108524
vn -0.358379 0.919126 -0.163457
vn -0.350505 0.901608 -0.253426
vn -0.329936 0.896298 -0.296243
vn -0.233894 0.900693 -0.366039
vn -0.247444 0.911588 -0.328196
vn -0.278695 0.928068 -0.246864
vn -0.314646 0.933866 -0.169774
vn -0.349254 0.930448 -0.110569
vn -0.378307 0.922056 -0.081515
vn -0.398846 0.912320 -0.092532
vn -0.407270 0.900693 -0.151250
vn -0.396985 0.883297 -0.249214
vn -0.362682 0.875973 -0.317972
vn -0.250954 0.935911 -0.247047
s 1
f 144/1/1 34/2/2 15/3/3
f 35/4/4 54/5/5 4/6/6
f 54/5/5 64/7/7 24/8/8
f 64/7/7 74/9/9 23/10/10
f 74/9/9 84/11/11 22/12/12
f 84/11/11 94/13/13 21/14/14
f 94/13/13 104/15/15 20/16/16
f 104/15/15 114/17/17 19/18/18
f 114/17/17 124/19/19 18/20/20
f 124/19/19 134/21/21 17/22/22
f 134/21/21 144/1/1 16/23/23
f 2/24/24 14/25/25 45/26/26
f 44/27/27 45/26/26 46/28/28
f 43/29/29 46/28/28 47/30/30
f 42/31/31 47/30/30 48/32/32
f 41/33/33 48/32/32 40/34/34
f 40/34/34 49/35/35 39/36/36
f 39/36/36 50/37/37 51/38/38
f 38/39/39 51/38/38 37/40/40
f 37/40/40 52/41/41 36/42/42
f 36/42/42 53/43/43 35/4/4
f 14/25/25 13/44/44 55/45/45
f 45/26/26 55/45/45 56/46/46
f 46/28/28 56/46/46 57/47/47
f 47/30/30 57/47/47 58/48/48
f 48/32/32 58/48/48 49/35/35
f 49/35/35 59/49/49 50/37/37
f 50/37/37 60/50/50 51/38/38
f 51/38/38 61/51/51 52/41/41
f 52/41/41 62/52/52 53/43/43
f 53/43/43 63/53/53 64/7/7
f 13/44/44 12/54/54 65/55/55
f 55/45/45 65/55/55 66/56/56
f 56/46/46 66/56/56 67/57/57
f 57/47/47 67/57/57 68/58/58
f 58/48/48 68/58/58 59/49/49
f 59/49/49 69/59/59 60/50/50
f 60/50/50 70/60/60 61/51/51
f 61/51/51 71/61/61 62/52/52
f 62/52/52 72/62/62 63/53/53
f 63/53/53 73/63/63 64/7/7
f 12/54/54 11/64/64 75/65/65
f 65/55/55 75/65/65 76/66/66
f 66/56/56 76/66/66 77/67/67
f 67/57/57 77/67/67 78/68/68
f 68/58/58 78/68/68 69/59/59
f 69/59/59 79/69/69 70/60/60
f 70/60/60 80/70/70 71/61/61
f 71/61/61 81/71/71 72/62/62
f 72/62/62 82/72/72 73/63/63
f 73/63/63 83/73/73 74/9/9
f 11/64/64 10/74/74 75/65/65
f 75/65/65 85/75/75 86/76/76
f 76/66/66 86/76/76 87/77/77
f 77/67/67 87/77/77 88/78/78
f 78/68/68 88/78/78 79/69/69
f 79/69/69 89/79/79 80/70/70
f 80/70/70 90/80/80 81/71/71
f 81/71/71 91/81/81 82/72/72
f 82/72/72 92/82/82 83/73/73
f 83/73/73 93/83/83 84/11/11
f 10/74/74 9/84/84 85/75/75
f 85/75/75 95/85/85 86/76/76
f 86/76/76 96/86/86 97/87/87
f 87/77/77 97/87/87 98/88/88
f 88/78/78 98/88/88 89/79/79
f 89/79/79 99/89/89 90/80/80
f 90/80/80 100/90/90 91/81/81
f 91/81/81 101/91/91 92/82/82
f 92/82/82 102/92/92 93/83/83
f 93/83/83 103/93/93 94/13/13
f 9/84/84 8/94/94 95/85/85
f 95/85/85 105/95/95 96/86/86
f 96/86/86 106/96/96 97/87/87
f 97/87/87 107/97/97 98/88/88
f 98/88/88 108/98/98 99/89/89
f 99/89/89 109/99/99 100/90/90
f 100/90/90 110/100/100 101/91/91
f 101/91/91 111/101/101 102/92/92
f 102/92/92 112/102/102 103/93/93
f 103/93/93 113/103/103 104/15/15
f 8/94/94 7/104/104 105/95/95
f 105/95/95 115/105/105 106/96/96
f 106/96/96 116/106/106 107/97/97
f 107/97/97 117/107/107 108/98/98
f 108/98/98 118/108/108 109/99/99
f 109/99/99 119/109/109 110/100/100
f 110/100/100 120/110/110 111/101/101
f 111/101/101 121/111/111 112/102/102
f 112/102/102 122/112/112 113/103/103
f 113/103/103 123/113/113 114/17/17
f 7/104/104 6/114/114 115/105/105
f 115/105/105 125/115/115 116/106/106
f 116/106/106 126/116/116 117/107/107
f 117/107/107 127/117/117 118/108/108
f 118/108/108 128/118/118 119/109/109
f 119/109/109 129/119/119 120/110/110
f 120/110/110 130/120/120 121/111/111
f 121/111/111 131/121/121 122/112/112
f 122/112/112 132/122/122 123/113/113
f 123/113/113 133/123/123 124/19/19
f 6/114/114 5/124/124 125/115/115
f 125/115/115 135/125/125 126/116/116
f 126/116/116 136/126/126 127/117/117
f 127/117/117 137/127/127 128/118/118
f 128/118/118 138/128/128 129/119/119
f 129/119/119 139/129/129 130/120/120
f 130/120/120 140/130/130 131/121/121
f 131/121/121 141/131/131 132/122/122
f 132/122/122 142/132/132 133/123/123
f 133/123/123 143/133/133 134/21/21
f 5/124/124 1/134/134 135/125/125
f 135/125/125 25/135/135 136/126/126
f 136/126/126 26/136/136 137/127/127
f 137/127/127 27/137/137 138/128/128
f 138/128/128 28/138/138 139/129/129
f 139/129/129 29/139/139 140/130/130
f 140/130/130 30/140/140 141/131/131
f 141/131/131 31/141/141 142/132/132
f 142/132/132 32/142/142 143/133/133
f 143/133/133 33/143/143 144/1/1
f 34/2/2 3/144/144 15/3/3
f 54/5/5 24/8/8 4/6/6
f 64/7/7 23/10/10 24/8/8
f 74/9/9 22/12/12 23/10/10
f 84/11/11 21/14/14 22/12/12
f 94/13/13 20/16/16 21/14/14
f 104/15/15 19/18/18 20/16/16
f 114/17/17 18/20/20 19/18/18
f 124/19/19 17/22/22 18/20/20
f 134/21/21 16/23/23 17/22/22
f 144/1/1 15/3/3 16/23/23
f 44/27/27 2/24/24 45/26/26
f 43/29/29 44/27/27 46/28/28
f 42/31/31 43/29/29 47/30/30
f 41/33/33 42/31/31 48/32/32
f 48/32/32 49/35/35 40/34/34
f 49/35/35 50/37/37 39/36/36
f 38/39/39 39/36/36 51/38/38
f 51/38/38 52/41/41 37/40/40
f 52/41/41 53/43/43 36/42/42
f 53/43/43 54/5/5 35/4/4
f 45/26/26 14/25/25 55/45/45
f 46/28/28 45/26/26 56/46/46
f 47/30/30 46/28/28 57/47/47
f 48/32/32 47/30/30 58/48/48
f 58/48/48 59/49/49 49/35/35
f 59/49/49 60/50/50 50/37/37
f 60/50/50 61/51/51 51/38/38
f 61/51/51 62/52/52 52/41/41
f 62/52/52 63/53/53 53/43/43
f 54/5/5 53/43/43 64/7/7
f 55/45/45 13/44/44 65/55/55
f 56/46/46 55/45/45 66/56/56
f 57/47/47 56/46/46 67/57/57
f 58/48/48 57/47/47 68/58/58
f 68/58/58 69/59/59 59/49/49
f 69/59/59 70/60/60 60/50/50
f 70/60/60 71/61/61 61/51/51
f 71/61/61 72/62/62 62/52/52
f 72/62/62 73/63/63 63/53/53
f 73/63/63 74/9/9 64/7/7
f 65/55/55 12/54/54 75/65/65
f 66/56/56 65/55/55 76/66/66
f 67/57/57 66/56/56 77/67/67
f 68/58/58 67/57/57 78/68/68
f 78/68/68 79/69/69 69/59/59
f 79/69/69 80/70/70 70/60/60
f 80/70/70 81/71/71 71/61/61
f 81/71/71 82/72/72 72/62/62
f 82/72/72 83/73/73 73/63/63
f 83/73/73 84/11/11 74/9/9
f 10/74/74 85/75/75 75/65/65
f 76/66/66 75/65/65 86/76/76
f 77/67/67 76/66/66 87/77/77
f 78/68/68 77/67/67 88/78/78
f 88/78/78 89/79/79 79/69/69
f 89/79/79 90/80/80 80/70/70
f 90/80/80 91/81/81 81/71/71
f 91/81/81 92/82/82 82/72/72
f 92/82/82 93/83/83 83/73/73
f 93/83/83 94/13/13 84/11/11
f 9/84/84 95/85/85 85/75/75
f 95/85/85 96/86/86 86/76/76
f 87/77/77 86/76/76 97/87/87
f 88/78/78 87/77/77 98/88/88
f 98/88/88 99/89/89 89/79/79
f 99/89/89 100/90/90 90/80/80
f 100/90/90 101/91/91 91/81/81
f 101/91/91 102/92/92 92/82/82
f 102/92/92 103/93/93 93/83/83
f 103/93/93 104/15/15 94/13/13
f 8/94/94 105/95/95 95/85/85
f 105/95/95 106/96/96 96/86/86
f 106/96/96 107/97/97 97/87/87
f 107/97/97 108/98/98 98/88/88
f 108/98/98 109/99/99 99/89/89
f 109/99/99 110/100/100 100/90/90
f 110/100/100 111/101/101 101/91/91
f 111/101/101 112/102/102 102/92/92
f 112/102/102 113/103/103 103/93/93
f 113/103/103 114/17/17 104/15/15
f 7/104/104 115/105/105 105/95/95
f 115/105/105 116/106/106 106/96/96
f 116/106/106 117/107/107 107/97/97
f 117/107/107 118/108/108 108/98/98
f 118/108/108 119/109/109 109/99/99
f 119/109/109 120/110/110 110/100/100
f 120/110/110 121/111/111 111/101/101
f 121/111/111 122/112/112 112/102/102
f 122/112/112 123/113/113 113/103/103
f 123/113/113 124/19/19 114/17/17
f 6/114/114 125/115/115 115/105/105
f 125/115/115 126/116/116 116/106/106
f 126/116/116 127/117/117 117/107/107
f 127/117/117 128/118/118 118/108/108
f 128/118/118 129/119/119 119/109/109
f 129/119/119 130/120/120 120/110/110
f 130/120/120 131/121/121 121/111/111
f 131/121/121 132/122/122 122/112/112
f 132/122/122 133/123/123 123/113/113
f 133/123/123 134/21/21 124/19/19
f 5/124/124 135/125/125 125/115/115
f 135/125/125 136/126/126 126/116/116
f 136/126/126 137/127/127 127/117/117
f 137/127/127 138/128/128 128/118/118
f 138/128/128 139/129/129 129/119/119
f 139/129/129 140/130/130 130/120/120
f 140/130/130 141/131/131 131/121/121
f 141/131/131 142/132/132 132/122/122
f 142/132/132 143/133/133 133/123/123
f 143/133/133 144/1/1 134/21/21
f 1/134/134 25/135/135 135/125/125
f 25/135/135 26/136/136 136/126/126
f 26/136/136 27/137/137 137/127/127
f 27/137/137 28/138/138 138/128/128
f 28/138/138 29/139/139 139/129/129
f 29/139/139 30/140/140 140/130/130
f 30/140/140 31/141/141 141/131/131
f 31/141/141 32/142/142 142/132/132
f 32/142/142 33/143/143 143/133/133
f 33/143/143 34/2/2 144/1/1
