# Blender v2.65 (sub 0) OBJ File: 'tree3.blend'
# www.blender.org
o Cylinder
v 0.056832 -0.259259 -0.661204
v 0.056832 1.350180 -0.364486
v 0.180581 -0.259259 -0.649016
v 0.122694 1.350180 -0.357999
v 0.299575 -0.259259 -0.612920
v 0.186026 1.350180 -0.338788
v 0.409240 -0.259259 -0.554302
v 0.244392 1.350180 -0.307590
v 0.505362 -0.259259 -0.475417
v 0.295551 1.350180 -0.265606
v 0.584248 -0.259259 -0.379295
v 0.337536 1.350180 -0.214447
v 0.642865 -0.259259 -0.269629
v 0.368733 1.350180 -0.156080
v 0.678961 -0.259259 -0.150636
v 0.387944 1.350180 -0.092749
v 0.691149 -0.259259 -0.026887
v 0.394431 1.350180 -0.026887
v 0.678961 -0.259259 0.096863
v 0.387944 1.350180 0.038976
v 0.642865 -0.259259 0.215856
v 0.368733 1.350180 0.102307
v 0.584248 -0.259259 0.325522
v 0.337536 1.350180 0.160674
v 0.505362 -0.259259 0.421644
v 0.295551 1.350180 0.211832
v 0.409240 -0.259259 0.500529
v 0.244392 1.350180 0.253817
v 0.299574 -0.259259 0.559147
v 0.186025 1.350180 0.285015
v 0.180581 -0.259259 0.595243
v 0.122694 1.350180 0.304226
v 0.056831 -0.259259 0.607431
v 0.056832 1.350180 0.310713
v -0.066918 -0.259259 0.595243
v -0.009031 1.350180 0.304226
v -0.185912 -0.259259 0.559147
v -0.072362 1.350180 0.285015
v -0.295577 -0.259259 0.500529
v -0.130729 1.350180 0.253817
v -0.391699 -0.259259 0.421644
v -0.181887 1.350180 0.211832
v -0.470585 -0.259259 0.325521
v -0.223872 1.350180 0.160674
v -0.529202 -0.259259 0.215856
v -0.255070 1.350180 0.102307
v -0.565298 -0.259259 0.096862
v -0.274281 1.350180 0.038976
v -0.577486 -0.259259 -0.026887
v -0.280768 1.350180 -0.026887
v -0.565298 -0.259259 -0.150636
v -0.274281 1.350180 -0.092749
v -0.529201 -0.259259 -0.269630
v -0.255069 1.350180 -0.156081
v -0.470584 -0.259259 -0.379295
v -0.223872 1.350180 -0.214447
v -0.391698 -0.259259 -0.475417
v -0.181887 1.350180 -0.265606
v -0.295576 -0.259259 -0.554303
v -0.130728 1.350180 -0.307591
v -0.185910 -0.259259 -0.612920
v -0.072362 1.350180 -0.338788
v -0.066917 -0.259259 -0.649016
v -0.009030 1.350180 -0.357999
vt 0.000000 0.000000
vt 1.000000 0.000000
vt 1.000000 1.000000
vt 0.000000 1.000000
vt 0.500000 1.000000
vt 0.597545 0.990393
vt 0.691342 0.961940
vt 0.777785 0.915735
vt 0.402456 0.990393
vt 0.853553 0.853553
vt 0.308659 0.961940
vt 0.915735 0.777785
vt 0.222215 0.915735
vt 0.961940 0.691342
vt 0.146447 0.853554
vt 0.990393 0.597545
vt 0.084266 0.777786
vt 1.000000 0.500000
vt 0.038060 0.691342
vt 0.990393 0.402455
vt 0.009607 0.597546
vt 0.961940 0.308658
vt 0.000000 0.500000
vt 0.915735 0.222215
vt 0.009607 0.402455
vt 0.853553 0.146447
vt 0.038060 0.308659
vt 0.777785 0.084265
vt 0.084265 0.222215
vt 0.691342 0.038060
vt 0.146446 0.146447
vt 0.597545 0.009607
vt 0.222215 0.084265
vt 0.500000 0.000000
vt 0.308658 0.038060
vt 0.402455 0.009607
vt 0.111625 0.181269
vt 0.181269 0.111625
vt 0.056906 0.263160
vt 0.019215 0.354155
vt 0.263161 0.056906
vt 0.000000 0.450754
vt 0.354155 0.019215
vt 0.000000 0.549245
vt 0.450754 0.000000
vt 0.019215 0.645844
vt 0.549246 0.000000
vt 0.056905 0.736838
vt 0.645845 0.019215
vt 0.111624 0.818731
vt 0.736839 0.056906
vt 0.181268 0.888375
vt 0.818731 0.111625
vt 0.263161 0.943094
vt 0.888375 0.181269
vt 0.354155 0.980785
vt 0.943094 0.263161
vt 0.450754 1.000000
vt 0.980785 0.354155
vt 0.549245 1.000000
vt 1.000000 0.450754
vt 0.645844 0.980785
vt 1.000000 0.549246
vt 0.736839 0.943094
vt 0.980785 0.645845
vt 0.818731 0.888376
vt 0.943094 0.736839
vt 0.888375 0.818732
vn 0.096408 0.180461 -0.978846
vn 0.285519 0.180461 -0.941229
vn 0.463657 0.180461 -0.867442
vn 0.623978 0.180461 -0.760319
vn 0.760319 0.180461 -0.623978
vn 0.867442 0.180461 -0.463658
vn 0.941230 0.180461 -0.285519
vn 0.978846 0.180461 -0.096408
vn 0.978846 0.180461 0.096408
vn 0.941230 0.180461 0.285518
vn 0.867442 0.180461 0.463657
vn 0.760319 0.180461 0.623978
vn 0.623978 0.180461 0.760320
vn 0.463657 0.180461 0.867442
vn 0.285519 0.180461 0.941229
vn 0.096407 0.180461 0.978846
vn -0.096408 0.180461 0.978846
vn -0.285519 0.180461 0.941229
vn -0.463658 0.180461 0.867442
vn -0.623978 0.180461 0.760319
vn -0.760319 0.180461 0.623978
vn -0.867442 0.180461 0.463657
vn -0.941230 0.180461 0.285518
vn -0.978846 0.180461 0.096407
vn -0.978846 0.180461 -0.096409
vn -0.941229 0.180461 -0.285520
vn -0.867441 0.180461 -0.463658
vn -0.760318 0.180461 -0.623979
vn -0.623978 0.180461 -0.760320
vn -0.463656 0.180461 -0.867443
vn -0.000000 1.000000 0.000000
vn -0.096407 0.180461 -0.978846
vn -0.285518 0.180461 -0.941230
vn 0.000000 -1.000000 -0.000000
s off
f 1/1/1 2/2/1 4/3/1
f 1/1/1 4/3/1 3/4/1
f 3/1/2 4/2/2 6/3/2
f 3/1/2 6/3/2 5/4/2
f 5/1/3 6/2/3 8/3/3
f 5/1/3 8/3/3 7/4/3
f 7/1/4 8/2/4 10/3/4
f 7/1/4 10/3/4 9/4/4
f 9/1/5 10/2/5 12/3/5
f 9/1/5 12/3/5 11/4/5
f 11/1/6 12/2/6 14/3/6
f 11/1/6 14/3/6 13/4/6
f 13/1/7 14/2/7 16/3/7
f 13/1/7 16/3/7 15/4/7
f 15/1/8 16/2/8 18/3/8
f 15/1/8 18/3/8 17/4/8
f 17/1/9 18/2/9 20/3/9
f 17/1/9 20/3/9 19/4/9
f 19/1/10 20/2/10 22/3/10
f 19/1/10 22/3/10 21/4/10
f 21/1/11 22/2/11 24/3/11
f 21/1/11 24/3/11 23/4/11
f 23/1/12 24/2/12 26/3/12
f 23/1/12 26/3/12 25/4/12
f 25/1/13 26/2/13 28/3/13
f 25/1/13 28/3/13 27/4/13
f 27/1/14 28/2/14 30/3/14
f 27/1/14 30/3/14 29/4/14
f 29/1/15 30/2/15 32/3/15
f 29/1/15 32/3/15 31/4/15
f 31/1/16 32/2/16 34/3/16
f 31/1/16 34/3/16 33/4/16
f 33/1/17 34/2/17 36/3/17
f 33/1/17 36/3/17 35/4/17
f 35/1/18 36/2/18 38/3/18
f 35/1/18 38/3/18 37/4/18
f 37/1/19 38/2/19 40/3/19
f 37/1/19 40/3/19 39/4/19
f 39/1/20 40/2/20 42/3/20
f 39/1/20 42/3/20 41/4/20
f 41/1/21 42/2/21 44/3/21
f 41/1/21 44/3/21 43/4/21
f 43/1/22 44/2/22 46/3/22
f 43/1/22 46/3/22 45/4/22
f 45/1/23 46/2/23 48/3/23
f 45/1/23 48/3/23 47/4/23
f 47/1/24 48/2/24 50/3/24
f 47/1/24 50/3/24 49/4/24
f 49/1/25 50/2/25 52/3/25
f 49/1/25 52/3/25 51/4/25
f 51/1/26 52/2/26 54/3/26
f 51/1/26 54/3/26 53/4/26
f 53/1/27 54/2/27 56/3/27
f 53/1/27 56/3/27 55/4/27
f 55/1/28 56/2/28 58/3/28
f 55/1/28 58/3/28 57/4/28
f 57/1/29 58/2/29 60/3/29
f 57/1/29 60/3/29 59/4/29
f 59/1/30 60/2/30 62/3/30
f 59/1/30 62/3/30 61/4/30
f 4/5/31 2/6/31 64/7/31
f 4/5/31 64/7/31 62/8/31
f 4/5/31 62/8/31 6/9/31
f 62/8/31 60/10/31 6/9/31
f 60/10/31 8/11/31 6/9/31
f 60/10/31 58/12/31 8/11/31
f 58/12/31 10/13/31 8/11/31
f 58/12/31 56/14/31 10/13/31
f 56/14/31 12/15/31 10/13/31
f 56/14/31 54/16/31 12/15/31
f 54/16/31 14/17/31 12/15/31
f 54/16/31 52/18/31 14/17/31
f 52/18/31 16/19/31 14/17/31
f 52/18/31 50/20/31 16/19/31
f 50/20/31 18/21/31 16/19/31
f 50/20/31 48/22/31 18/21/31
f 48/22/31 20/23/31 18/21/31
f 48/22/31 46/24/31 20/23/31
f 46/24/31 22/25/31 20/23/31
f 46/24/31 44/26/31 22/25/31
f 44/26/31 24/27/31 22/25/31
f 44/26/31 42/28/31 24/27/31
f 42/28/31 26/29/31 24/27/31
f 42/28/31 40/30/31 26/29/31
f 40/30/31 28/31/31 26/29/31
f 40/30/31 38/32/31 28/31/31
f 38/32/31 30/33/31 28/31/31
f 38/32/31 36/34/31 30/33/31
f 36/34/31 32/35/31 30/33/31
f 36/34/31 34/36/31 32/35/31
f 2/3/32 1/4/32 63/1/32
f 2/3/32 63/1/32 64/2/32
f 61/1/33 62/2/33 64/3/33
f 61/1/33 64/3/33 63/4/33
f 1/37/34 3/38/34 63/39/34
f 3/38/34 61/40/34 63/39/34
f 3/38/34 5/41/34 61/40/34
f 5/41/34 59/42/34 61/40/34
f 5/41/34 7/43/34 59/42/34
f 7/43/34 57/44/34 59/42/34
f 7/43/34 9/45/34 57/44/34
f 9/45/34 55/46/34 57/44/34
f 9/45/34 11/47/34 55/46/34
f 11/47/34 53/48/34 55/46/34
f 11/47/34 13/49/34 53/48/34
f 13/49/34 51/50/34 53/48/34
f 13/49/34 15/51/34 51/50/34
f 15/51/34 49/52/34 51/50/34
f 15/51/34 17/53/34 49/52/34
f 17/53/34 47/54/34 49/52/34
f 17/53/34 19/55/34 47/54/34
f 19/55/34 45/56/34 47/54/34
f 19/55/34 21/57/34 45/56/34
f 21/57/34 43/58/34 45/56/34
f 21/57/34 23/59/34 43/58/34
f 23/59/34 41/60/34 43/58/34
f 23/59/34 25/61/34 41/60/34
f 25/61/34 39/62/34 41/60/34
f 25/61/34 27/63/34 39/62/34
f 27/63/34 37/64/34 39/62/34
f 27/63/34 29/65/34 37/64/34
f 29/65/34 35/66/34 37/64/34
f 29/65/34 31/67/34 35/66/34
f 31/67/34 33/68/34 35/66/34
