# Blender v2.65 (sub 0) OBJ File: ''
# www.blender.org
o Cube_Cube.004
v -4.255102 -2.356099 0.280533
v -4.255102 -2.356099 -0.377605
v 4.267718 -2.356099 -0.377605
v 4.267718 -2.356099 0.280533
v -4.255102 2.338597 0.280533
v -4.255102 2.338597 -0.377605
v 4.267718 2.338597 -0.377605
v 4.267718 2.338597 0.280533
vt 0.941431 0.000176
vt 0.998746 0.000000
vt 1.000000 0.408846
vt 0.942685 0.409022
vt 0.411123 0.742225
vt 0.413400 0.000000
vt 0.822246 0.001254
vt 0.819969 0.743480
vt 1.000000 0.817868
vt 0.942685 0.818044
vt 0.941431 0.409198
vt 0.998746 0.409022
vt 0.408846 0.000000
vt 0.002277 0.743480
vt 0.000000 0.001254
vt 0.939154 0.742401
vt 0.881839 0.742225
vt 0.884115 0.000000
vt 0.822246 0.000176
vt 0.879561 0.000000
vt 0.881838 0.742225
vt 0.824523 0.742401
vn -1.000000 -0.000000 0.000000
vn 0.000000 0.000000 -1.000000
vn 1.000000 -0.000000 0.000000
vn 0.000000 0.000000 1.000000
vn -0.000000 -1.000000 0.000000
vn -0.000000 1.000000 0.000000
s off
f 2/1/1 1/2/1 5/3/1
f 2/1/1 5/3/1 6/4/1
f 6/5/2 7/6/2 3/7/2
f 6/5/2 3/7/2 2/8/2
f 7/9/3 8/10/3 4/11/3
f 7/9/3 4/11/3 3/12/3
f 1/13/4 4/5/4 8/14/4
f 1/13/4 8/14/4 5/15/4
f 1/16/5 2/17/5 3/18/5
f 1/16/5 3/18/5 4/1/5
f 8/19/6 7/20/6 6/21/6
f 8/19/6 6/21/6 5/22/6
